<svg width="800" height="600" viewBox="0 0 800 600" fill="none" xmlns="http://www.w3.org/2000/svg">
<g id="Scene/Game&#208;&#161;" clip-path="url(#clip0_1_6637)">
<rect width="800" height="600" fill="white"/>
<g id="Background/Screen" clip-path="url(#clip1_1_6637)">
<g id="Background/Pattern" clip-path="url(#clip2_1_6637)">
<g id="Light">
<rect id="Rectangle" x="50" y="400" width="50" height="50" fill="#FEFEFE" stroke="#EBEBEB"/>
<rect id="Rectangle_2" y="450" width="50" height="50" fill="#FEFEFE" stroke="#EBEBEB"/>
<rect id="Rectangle_3" x="150" y="400" width="50" height="50" fill="#FEFEFE" stroke="#EBEBEB"/>
<rect id="Rectangle_4" x="100" y="450" width="50" height="50" fill="#FEFEFE" stroke="#EBEBEB"/>
<rect id="Rectangle_5" x="50" y="500" width="50" height="50" fill="#FEFEFE" stroke="#EBEBEB"/>
<rect id="Rectangle_6" y="550" width="50" height="50" fill="#FEFEFE" stroke="#EBEBEB"/>
<rect id="Rectangle_7" x="150" y="500" width="50" height="50" fill="#FEFEFE" stroke="#EBEBEB"/>
<rect id="Rectangle_8" x="100" y="550" width="50" height="50" fill="#FEFEFE" stroke="#EBEBEB"/>
</g>
<g id="Dark">
<rect id="Rectangle_9" y="400" width="50" height="50" fill="#F8F8F8" stroke="#EBEBEB"/>
<rect id="Rectangle_10" x="50" y="450" width="50" height="50" fill="#F8F8F8" stroke="#EBEBEB"/>
<rect id="Rectangle_11" x="100" y="400" width="50" height="50" fill="#F8F8F8" stroke="#EBEBEB"/>
<rect id="Rectangle_12" x="150" y="450" width="50" height="50" fill="#F8F8F8" stroke="#EBEBEB"/>
<rect id="Rectangle_13" y="500" width="50" height="50" fill="#F8F8F8" stroke="#EBEBEB"/>
<rect id="Rectangle_14" x="50" y="550" width="50" height="50" fill="#F8F8F8" stroke="#EBEBEB"/>
<rect id="Rectangle_15" x="100" y="500" width="50" height="50" fill="#F8F8F8" stroke="#EBEBEB"/>
<rect id="Rectangle_16" x="150" y="550" width="50" height="50" fill="#F8F8F8" stroke="#EBEBEB"/>
</g>
</g>
<g id="Background/Pattern_2" clip-path="url(#clip3_1_6637)">
<g id="Light_2">
<rect id="Rectangle_17" x="250" y="400" width="50" height="50" fill="#FEFEFE" stroke="#EBEBEB"/>
<rect id="Rectangle_18" x="200" y="450" width="50" height="50" fill="#FEFEFE" stroke="#EBEBEB"/>
<rect id="Rectangle_19" x="350" y="400" width="50" height="50" fill="#FEFEFE" stroke="#EBEBEB"/>
<rect id="Rectangle_20" x="300" y="450" width="50" height="50" fill="#FEFEFE" stroke="#EBEBEB"/>
<rect id="Rectangle_21" x="250" y="500" width="50" height="50" fill="#FEFEFE" stroke="#EBEBEB"/>
<rect id="Rectangle_22" x="200" y="550" width="50" height="50" fill="#FEFEFE" stroke="#EBEBEB"/>
<rect id="Rectangle_23" x="350" y="500" width="50" height="50" fill="#FEFEFE" stroke="#EBEBEB"/>
<rect id="Rectangle_24" x="300" y="550" width="50" height="50" fill="#FEFEFE" stroke="#EBEBEB"/>
</g>
<g id="Dark_2">
<rect id="Rectangle_25" x="200" y="400" width="50" height="50" fill="#F8F8F8" stroke="#EBEBEB"/>
<rect id="Rectangle_26" x="250" y="450" width="50" height="50" fill="#F8F8F8" stroke="#EBEBEB"/>
<rect id="Rectangle_27" x="300" y="400" width="50" height="50" fill="#F8F8F8" stroke="#EBEBEB"/>
<rect id="Rectangle_28" x="350" y="450" width="50" height="50" fill="#F8F8F8" stroke="#EBEBEB"/>
<rect id="Rectangle_29" x="200" y="500" width="50" height="50" fill="#F8F8F8" stroke="#EBEBEB"/>
<rect id="Rectangle_30" x="250" y="550" width="50" height="50" fill="#F8F8F8" stroke="#EBEBEB"/>
<rect id="Rectangle_31" x="300" y="500" width="50" height="50" fill="#F8F8F8" stroke="#EBEBEB"/>
<rect id="Rectangle_32" x="350" y="550" width="50" height="50" fill="#F8F8F8" stroke="#EBEBEB"/>
</g>
</g>
<g id="Background/Pattern_3" clip-path="url(#clip4_1_6637)">
<g id="Light_3">
<rect id="Rectangle_33" x="450" y="400" width="50" height="50" fill="#FEFEFE" stroke="#EBEBEB"/>
<rect id="Rectangle_34" x="400" y="450" width="50" height="50" fill="#FEFEFE" stroke="#EBEBEB"/>
<rect id="Rectangle_35" x="550" y="400" width="50" height="50" fill="#FEFEFE" stroke="#EBEBEB"/>
<rect id="Rectangle_36" x="500" y="450" width="50" height="50" fill="#FEFEFE" stroke="#EBEBEB"/>
<rect id="Rectangle_37" x="450" y="500" width="50" height="50" fill="#FEFEFE" stroke="#EBEBEB"/>
<rect id="Rectangle_38" x="400" y="550" width="50" height="50" fill="#FEFEFE" stroke="#EBEBEB"/>
<rect id="Rectangle_39" x="550" y="500" width="50" height="50" fill="#FEFEFE" stroke="#EBEBEB"/>
<rect id="Rectangle_40" x="500" y="550" width="50" height="50" fill="#FEFEFE" stroke="#EBEBEB"/>
</g>
<g id="Dark_3">
<rect id="Rectangle_41" x="400" y="400" width="50" height="50" fill="#F8F8F8" stroke="#EBEBEB"/>
<rect id="Rectangle_42" x="450" y="450" width="50" height="50" fill="#F8F8F8" stroke="#EBEBEB"/>
<rect id="Rectangle_43" x="500" y="400" width="50" height="50" fill="#F8F8F8" stroke="#EBEBEB"/>
<rect id="Rectangle_44" x="550" y="450" width="50" height="50" fill="#F8F8F8" stroke="#EBEBEB"/>
<rect id="Rectangle_45" x="400" y="500" width="50" height="50" fill="#F8F8F8" stroke="#EBEBEB"/>
<rect id="Rectangle_46" x="450" y="550" width="50" height="50" fill="#F8F8F8" stroke="#EBEBEB"/>
<rect id="Rectangle_47" x="500" y="500" width="50" height="50" fill="#F8F8F8" stroke="#EBEBEB"/>
<rect id="Rectangle_48" x="550" y="550" width="50" height="50" fill="#F8F8F8" stroke="#EBEBEB"/>
</g>
</g>
<g id="Background/Pattern_4" clip-path="url(#clip5_1_6637)">
<g id="Light_4">
<rect id="Rectangle_49" x="650" y="400" width="50" height="50" fill="#FEFEFE" stroke="#EBEBEB"/>
<rect id="Rectangle_50" x="600" y="450" width="50" height="50" fill="#FEFEFE" stroke="#EBEBEB"/>
<rect id="Rectangle_51" x="750" y="400" width="50" height="50" fill="#FEFEFE" stroke="#EBEBEB"/>
<rect id="Rectangle_52" x="700" y="450" width="50" height="50" fill="#FEFEFE" stroke="#EBEBEB"/>
<rect id="Rectangle_53" x="650" y="500" width="50" height="50" fill="#FEFEFE" stroke="#EBEBEB"/>
<rect id="Rectangle_54" x="600" y="550" width="50" height="50" fill="#FEFEFE" stroke="#EBEBEB"/>
<rect id="Rectangle_55" x="750" y="500" width="50" height="50" fill="#FEFEFE" stroke="#EBEBEB"/>
<rect id="Rectangle_56" x="700" y="550" width="50" height="50" fill="#FEFEFE" stroke="#EBEBEB"/>
</g>
<g id="Dark_4">
<rect id="Rectangle_57" x="600" y="400" width="50" height="50" fill="#F8F8F8" stroke="#EBEBEB"/>
<rect id="Rectangle_58" x="650" y="450" width="50" height="50" fill="#F8F8F8" stroke="#EBEBEB"/>
<rect id="Rectangle_59" x="700" y="400" width="50" height="50" fill="#F8F8F8" stroke="#EBEBEB"/>
<rect id="Rectangle_60" x="750" y="450" width="50" height="50" fill="#F8F8F8" stroke="#EBEBEB"/>
<rect id="Rectangle_61" x="600" y="500" width="50" height="50" fill="#F8F8F8" stroke="#EBEBEB"/>
<rect id="Rectangle_62" x="650" y="550" width="50" height="50" fill="#F8F8F8" stroke="#EBEBEB"/>
<rect id="Rectangle_63" x="700" y="500" width="50" height="50" fill="#F8F8F8" stroke="#EBEBEB"/>
<rect id="Rectangle_64" x="750" y="550" width="50" height="50" fill="#F8F8F8" stroke="#EBEBEB"/>
</g>
</g>
<g id="Background/Pattern_5" clip-path="url(#clip6_1_6637)">
<g id="Light_5">
<rect id="Rectangle_65" x="250" width="50" height="50" fill="#FEFEFE" stroke="#EBEBEB"/>
<rect id="Rectangle_66" x="200" y="50" width="50" height="50" fill="#FEFEFE" stroke="#EBEBEB"/>
<rect id="Rectangle_67" x="350" width="50" height="50" fill="#FEFEFE" stroke="#EBEBEB"/>
<rect id="Rectangle_68" x="300" y="50" width="50" height="50" fill="#FEFEFE" stroke="#EBEBEB"/>
<rect id="Rectangle_69" x="250" y="100" width="50" height="50" fill="#FEFEFE" stroke="#EBEBEB"/>
<rect id="Rectangle_70" x="200" y="150" width="50" height="50" fill="#FEFEFE" stroke="#EBEBEB"/>
<rect id="Rectangle_71" x="350" y="100" width="50" height="50" fill="#FEFEFE" stroke="#EBEBEB"/>
<rect id="Rectangle_72" x="300" y="150" width="50" height="50" fill="#FEFEFE" stroke="#EBEBEB"/>
</g>
<g id="Dark_5">
<rect id="Rectangle_73" x="200" width="50" height="50" fill="#F8F8F8" stroke="#EBEBEB"/>
<rect id="Rectangle_74" x="250" y="50" width="50" height="50" fill="#F8F8F8" stroke="#EBEBEB"/>
<rect id="Rectangle_75" x="300" width="50" height="50" fill="#F8F8F8" stroke="#EBEBEB"/>
<rect id="Rectangle_76" x="350" y="50" width="50" height="50" fill="#F8F8F8" stroke="#EBEBEB"/>
<rect id="Rectangle_77" x="200" y="100" width="50" height="50" fill="#F8F8F8" stroke="#EBEBEB"/>
<rect id="Rectangle_78" x="250" y="150" width="50" height="50" fill="#F8F8F8" stroke="#EBEBEB"/>
<rect id="Rectangle_79" x="300" y="100" width="50" height="50" fill="#F8F8F8" stroke="#EBEBEB"/>
<rect id="Rectangle_80" x="350" y="150" width="50" height="50" fill="#F8F8F8" stroke="#EBEBEB"/>
</g>
</g>
<g id="Background/Pattern_6" clip-path="url(#clip7_1_6637)">
<g id="Light_6">
<rect id="Rectangle_81" x="450" width="50" height="50" fill="#FEFEFE" stroke="#EBEBEB"/>
<rect id="Rectangle_82" x="400" y="50" width="50" height="50" fill="#FEFEFE" stroke="#EBEBEB"/>
<rect id="Rectangle_83" x="550" width="50" height="50" fill="#FEFEFE" stroke="#EBEBEB"/>
<rect id="Rectangle_84" x="500" y="50" width="50" height="50" fill="#FEFEFE" stroke="#EBEBEB"/>
<rect id="Rectangle_85" x="450" y="100" width="50" height="50" fill="#FEFEFE" stroke="#EBEBEB"/>
<rect id="Rectangle_86" x="400" y="150" width="50" height="50" fill="#FEFEFE" stroke="#EBEBEB"/>
<rect id="Rectangle_87" x="550" y="100" width="50" height="50" fill="#FEFEFE" stroke="#EBEBEB"/>
<rect id="Rectangle_88" x="500" y="150" width="50" height="50" fill="#FEFEFE" stroke="#EBEBEB"/>
</g>
<g id="Dark_6">
<rect id="Rectangle_89" x="400" width="50" height="50" fill="#F8F8F8" stroke="#EBEBEB"/>
<rect id="Rectangle_90" x="450" y="50" width="50" height="50" fill="#F8F8F8" stroke="#EBEBEB"/>
<rect id="Rectangle_91" x="500" width="50" height="50" fill="#F8F8F8" stroke="#EBEBEB"/>
<rect id="Rectangle_92" x="550" y="50" width="50" height="50" fill="#F8F8F8" stroke="#EBEBEB"/>
<rect id="Rectangle_93" x="400" y="100" width="50" height="50" fill="#F8F8F8" stroke="#EBEBEB"/>
<rect id="Rectangle_94" x="450" y="150" width="50" height="50" fill="#F8F8F8" stroke="#EBEBEB"/>
<rect id="Rectangle_95" x="500" y="100" width="50" height="50" fill="#F8F8F8" stroke="#EBEBEB"/>
<rect id="Rectangle_96" x="550" y="150" width="50" height="50" fill="#F8F8F8" stroke="#EBEBEB"/>
</g>
</g>
<g id="Background/Pattern_7" clip-path="url(#clip8_1_6637)">
<g id="Light_7">
<rect id="Rectangle_97" x="650" width="50" height="50" fill="#FEFEFE" stroke="#EBEBEB"/>
<rect id="Rectangle_98" x="600" y="50" width="50" height="50" fill="#FEFEFE" stroke="#EBEBEB"/>
<rect id="Rectangle_99" x="750" width="50" height="50" fill="#FEFEFE" stroke="#EBEBEB"/>
<rect id="Rectangle_100" x="700" y="50" width="50" height="50" fill="#FEFEFE" stroke="#EBEBEB"/>
<rect id="Rectangle_101" x="650" y="100" width="50" height="50" fill="#FEFEFE" stroke="#EBEBEB"/>
<rect id="Rectangle_102" x="600" y="150" width="50" height="50" fill="#FEFEFE" stroke="#EBEBEB"/>
<rect id="Rectangle_103" x="750" y="100" width="50" height="50" fill="#FEFEFE" stroke="#EBEBEB"/>
<rect id="Rectangle_104" x="700" y="150" width="50" height="50" fill="#FEFEFE" stroke="#EBEBEB"/>
</g>
<g id="Dark_7">
<rect id="Rectangle_105" x="600" width="50" height="50" fill="#F8F8F8" stroke="#EBEBEB"/>
<rect id="Rectangle_106" x="650" y="50" width="50" height="50" fill="#F8F8F8" stroke="#EBEBEB"/>
<rect id="Rectangle_107" x="700" width="50" height="50" fill="#F8F8F8" stroke="#EBEBEB"/>
<rect id="Rectangle_108" x="750" y="50" width="50" height="50" fill="#F8F8F8" stroke="#EBEBEB"/>
<rect id="Rectangle_109" x="600" y="100" width="50" height="50" fill="#F8F8F8" stroke="#EBEBEB"/>
<rect id="Rectangle_110" x="650" y="150" width="50" height="50" fill="#F8F8F8" stroke="#EBEBEB"/>
<rect id="Rectangle_111" x="700" y="100" width="50" height="50" fill="#F8F8F8" stroke="#EBEBEB"/>
<rect id="Rectangle_112" x="750" y="150" width="50" height="50" fill="#F8F8F8" stroke="#EBEBEB"/>
</g>
</g>
<g id="Background/Pattern_8" clip-path="url(#clip9_1_6637)">
<g id="Light_8">
<rect id="Rectangle_113" x="50" y="200" width="50" height="50" fill="#FEFEFE" stroke="#EBEBEB"/>
<rect id="Rectangle_114" y="250" width="50" height="50" fill="#FEFEFE" stroke="#EBEBEB"/>
<rect id="Rectangle_115" x="150" y="200" width="50" height="50" fill="#FEFEFE" stroke="#EBEBEB"/>
<rect id="Rectangle_116" x="100" y="250" width="50" height="50" fill="#FEFEFE" stroke="#EBEBEB"/>
<rect id="Rectangle_117" x="50" y="300" width="50" height="50" fill="#FEFEFE" stroke="#EBEBEB"/>
<rect id="Rectangle_118" y="350" width="50" height="50" fill="#FEFEFE" stroke="#EBEBEB"/>
<rect id="Rectangle_119" x="150" y="300" width="50" height="50" fill="#FEFEFE" stroke="#EBEBEB"/>
<rect id="Rectangle_120" x="100" y="350" width="50" height="50" fill="#FEFEFE" stroke="#EBEBEB"/>
</g>
<g id="Dark_8">
<rect id="Rectangle_121" y="200" width="50" height="50" fill="#F8F8F8" stroke="#EBEBEB"/>
<rect id="Rectangle_122" x="50" y="250" width="50" height="50" fill="#F8F8F8" stroke="#EBEBEB"/>
<rect id="Rectangle_123" x="100" y="200" width="50" height="50" fill="#F8F8F8" stroke="#EBEBEB"/>
<rect id="Rectangle_124" x="150" y="250" width="50" height="50" fill="#F8F8F8" stroke="#EBEBEB"/>
<rect id="Rectangle_125" y="300" width="50" height="50" fill="#F8F8F8" stroke="#EBEBEB"/>
<rect id="Rectangle_126" x="50" y="350" width="50" height="50" fill="#F8F8F8" stroke="#EBEBEB"/>
<rect id="Rectangle_127" x="100" y="300" width="50" height="50" fill="#F8F8F8" stroke="#EBEBEB"/>
<rect id="Rectangle_128" x="150" y="350" width="50" height="50" fill="#F8F8F8" stroke="#EBEBEB"/>
</g>
</g>
<g id="Background/Pattern_9" clip-path="url(#clip10_1_6637)">
<g id="Light_9">
<rect id="Rectangle_129" x="250" y="200" width="50" height="50" fill="#FEFEFE" stroke="#EBEBEB"/>
<rect id="Rectangle_130" x="200" y="250" width="50" height="50" fill="#FEFEFE" stroke="#EBEBEB"/>
<rect id="Rectangle_131" x="350" y="200" width="50" height="50" fill="#FEFEFE" stroke="#EBEBEB"/>
<rect id="Rectangle_132" x="300" y="250" width="50" height="50" fill="#FEFEFE" stroke="#EBEBEB"/>
<rect id="Rectangle_133" x="250" y="300" width="50" height="50" fill="#FEFEFE" stroke="#EBEBEB"/>
<rect id="Rectangle_134" x="200" y="350" width="50" height="50" fill="#FEFEFE" stroke="#EBEBEB"/>
<rect id="Rectangle_135" x="350" y="300" width="50" height="50" fill="#FEFEFE" stroke="#EBEBEB"/>
<rect id="Rectangle_136" x="300" y="350" width="50" height="50" fill="#FEFEFE" stroke="#EBEBEB"/>
</g>
<g id="Dark_9">
<rect id="Rectangle_137" x="200" y="200" width="50" height="50" fill="#F8F8F8" stroke="#EBEBEB"/>
<rect id="Rectangle_138" x="250" y="250" width="50" height="50" fill="#F8F8F8" stroke="#EBEBEB"/>
<rect id="Rectangle_139" x="300" y="200" width="50" height="50" fill="#F8F8F8" stroke="#EBEBEB"/>
<rect id="Rectangle_140" x="350" y="250" width="50" height="50" fill="#F8F8F8" stroke="#EBEBEB"/>
<rect id="Rectangle_141" x="200" y="300" width="50" height="50" fill="#F8F8F8" stroke="#EBEBEB"/>
<rect id="Rectangle_142" x="250" y="350" width="50" height="50" fill="#F8F8F8" stroke="#EBEBEB"/>
<rect id="Rectangle_143" x="300" y="300" width="50" height="50" fill="#F8F8F8" stroke="#EBEBEB"/>
<rect id="Rectangle_144" x="350" y="350" width="50" height="50" fill="#F8F8F8" stroke="#EBEBEB"/>
</g>
</g>
<g id="Background/Pattern_10" clip-path="url(#clip11_1_6637)">
<g id="Light_10">
<rect id="Rectangle_145" x="450" y="200" width="50" height="50" fill="#FEFEFE" stroke="#EBEBEB"/>
<rect id="Rectangle_146" x="400" y="250" width="50" height="50" fill="#FEFEFE" stroke="#EBEBEB"/>
<rect id="Rectangle_147" x="550" y="200" width="50" height="50" fill="#FEFEFE" stroke="#EBEBEB"/>
<rect id="Rectangle_148" x="500" y="250" width="50" height="50" fill="#FEFEFE" stroke="#EBEBEB"/>
<rect id="Rectangle_149" x="450" y="300" width="50" height="50" fill="#FEFEFE" stroke="#EBEBEB"/>
<rect id="Rectangle_150" x="400" y="350" width="50" height="50" fill="#FEFEFE" stroke="#EBEBEB"/>
<rect id="Rectangle_151" x="550" y="300" width="50" height="50" fill="#FEFEFE" stroke="#EBEBEB"/>
<rect id="Rectangle_152" x="500" y="350" width="50" height="50" fill="#FEFEFE" stroke="#EBEBEB"/>
</g>
<g id="Dark_10">
<rect id="Rectangle_153" x="400" y="200" width="50" height="50" fill="#F8F8F8" stroke="#EBEBEB"/>
<rect id="Rectangle_154" x="450" y="250" width="50" height="50" fill="#F8F8F8" stroke="#EBEBEB"/>
<rect id="Rectangle_155" x="500" y="200" width="50" height="50" fill="#F8F8F8" stroke="#EBEBEB"/>
<rect id="Rectangle_156" x="550" y="250" width="50" height="50" fill="#F8F8F8" stroke="#EBEBEB"/>
<rect id="Rectangle_157" x="400" y="300" width="50" height="50" fill="#F8F8F8" stroke="#EBEBEB"/>
<rect id="Rectangle_158" x="450" y="350" width="50" height="50" fill="#F8F8F8" stroke="#EBEBEB"/>
<rect id="Rectangle_159" x="500" y="300" width="50" height="50" fill="#F8F8F8" stroke="#EBEBEB"/>
<rect id="Rectangle_160" x="550" y="350" width="50" height="50" fill="#F8F8F8" stroke="#EBEBEB"/>
</g>
</g>
<g id="Background/Pattern_11" clip-path="url(#clip12_1_6637)">
<g id="Light_11">
<rect id="Rectangle_161" x="650" y="200" width="50" height="50" fill="#FEFEFE" stroke="#EBEBEB"/>
<rect id="Rectangle_162" x="600" y="250" width="50" height="50" fill="#FEFEFE" stroke="#EBEBEB"/>
<rect id="Rectangle_163" x="750" y="200" width="50" height="50" fill="#FEFEFE" stroke="#EBEBEB"/>
<rect id="Rectangle_164" x="700" y="250" width="50" height="50" fill="#FEFEFE" stroke="#EBEBEB"/>
<rect id="Rectangle_165" x="650" y="300" width="50" height="50" fill="#FEFEFE" stroke="#EBEBEB"/>
<rect id="Rectangle_166" x="600" y="350" width="50" height="50" fill="#FEFEFE" stroke="#EBEBEB"/>
<rect id="Rectangle_167" x="750" y="300" width="50" height="50" fill="#FEFEFE" stroke="#EBEBEB"/>
<rect id="Rectangle_168" x="700" y="350" width="50" height="50" fill="#FEFEFE" stroke="#EBEBEB"/>
</g>
<g id="Dark_11">
<rect id="Rectangle_169" x="600" y="200" width="50" height="50" fill="#F8F8F8" stroke="#EBEBEB"/>
<rect id="Rectangle_170" x="650" y="250" width="50" height="50" fill="#F8F8F8" stroke="#EBEBEB"/>
<rect id="Rectangle_171" x="700" y="200" width="50" height="50" fill="#F8F8F8" stroke="#EBEBEB"/>
<rect id="Rectangle_172" x="750" y="250" width="50" height="50" fill="#F8F8F8" stroke="#EBEBEB"/>
<rect id="Rectangle_173" x="600" y="300" width="50" height="50" fill="#F8F8F8" stroke="#EBEBEB"/>
<rect id="Rectangle_174" x="650" y="350" width="50" height="50" fill="#F8F8F8" stroke="#EBEBEB"/>
<rect id="Rectangle_175" x="700" y="300" width="50" height="50" fill="#F8F8F8" stroke="#EBEBEB"/>
<rect id="Rectangle_176" x="750" y="350" width="50" height="50" fill="#F8F8F8" stroke="#EBEBEB"/>
</g>
</g>
<g id="Background/Pattern_12" clip-path="url(#clip13_1_6637)">
<g id="Light_12">
<rect id="Rectangle_177" x="50" y="200" width="50" height="50" fill="#FEFEFE" stroke="#EBEBEB"/>
<rect id="Rectangle_178" y="250" width="50" height="50" fill="#FEFEFE" stroke="#EBEBEB"/>
<rect id="Rectangle_179" x="150" y="200" width="50" height="50" fill="#FEFEFE" stroke="#EBEBEB"/>
<rect id="Rectangle_180" x="100" y="250" width="50" height="50" fill="#FEFEFE" stroke="#EBEBEB"/>
<rect id="Rectangle_181" x="50" y="300" width="50" height="50" fill="#FEFEFE" stroke="#EBEBEB"/>
<rect id="Rectangle_182" y="350" width="50" height="50" fill="#FEFEFE" stroke="#EBEBEB"/>
<rect id="Rectangle_183" x="150" y="300" width="50" height="50" fill="#FEFEFE" stroke="#EBEBEB"/>
<rect id="Rectangle_184" x="100" y="350" width="50" height="50" fill="#FEFEFE" stroke="#EBEBEB"/>
</g>
<g id="Dark_12">
<rect id="Rectangle_185" y="200" width="50" height="50" fill="#F8F8F8" stroke="#EBEBEB"/>
<rect id="Rectangle_186" x="50" y="250" width="50" height="50" fill="#F8F8F8" stroke="#EBEBEB"/>
<rect id="Rectangle_187" x="100" y="200" width="50" height="50" fill="#F8F8F8" stroke="#EBEBEB"/>
<rect id="Rectangle_188" x="150" y="250" width="50" height="50" fill="#F8F8F8" stroke="#EBEBEB"/>
<rect id="Rectangle_189" y="300" width="50" height="50" fill="#F8F8F8" stroke="#EBEBEB"/>
<rect id="Rectangle_190" x="50" y="350" width="50" height="50" fill="#F8F8F8" stroke="#EBEBEB"/>
<rect id="Rectangle_191" x="100" y="300" width="50" height="50" fill="#F8F8F8" stroke="#EBEBEB"/>
<rect id="Rectangle_192" x="150" y="350" width="50" height="50" fill="#F8F8F8" stroke="#EBEBEB"/>
</g>
</g>
<g id="Background/Pattern_13" clip-path="url(#clip14_1_6637)">
<g id="Light_13">
<rect id="Rectangle_193" x="250" y="200" width="50" height="50" fill="#FEFEFE" stroke="#EBEBEB"/>
<rect id="Rectangle_194" x="200" y="250" width="50" height="50" fill="#FEFEFE" stroke="#EBEBEB"/>
<rect id="Rectangle_195" x="350" y="200" width="50" height="50" fill="#FEFEFE" stroke="#EBEBEB"/>
<rect id="Rectangle_196" x="300" y="250" width="50" height="50" fill="#FEFEFE" stroke="#EBEBEB"/>
<rect id="Rectangle_197" x="250" y="300" width="50" height="50" fill="#FEFEFE" stroke="#EBEBEB"/>
<rect id="Rectangle_198" x="200" y="350" width="50" height="50" fill="#FEFEFE" stroke="#EBEBEB"/>
<rect id="Rectangle_199" x="350" y="300" width="50" height="50" fill="#FEFEFE" stroke="#EBEBEB"/>
<rect id="Rectangle_200" x="300" y="350" width="50" height="50" fill="#FEFEFE" stroke="#EBEBEB"/>
</g>
<g id="Dark_13">
<rect id="Rectangle_201" x="200" y="200" width="50" height="50" fill="#F8F8F8" stroke="#EBEBEB"/>
<rect id="Rectangle_202" x="250" y="250" width="50" height="50" fill="#F8F8F8" stroke="#EBEBEB"/>
<rect id="Rectangle_203" x="300" y="200" width="50" height="50" fill="#F8F8F8" stroke="#EBEBEB"/>
<rect id="Rectangle_204" x="350" y="250" width="50" height="50" fill="#F8F8F8" stroke="#EBEBEB"/>
<rect id="Rectangle_205" x="200" y="300" width="50" height="50" fill="#F8F8F8" stroke="#EBEBEB"/>
<rect id="Rectangle_206" x="250" y="350" width="50" height="50" fill="#F8F8F8" stroke="#EBEBEB"/>
<rect id="Rectangle_207" x="300" y="300" width="50" height="50" fill="#F8F8F8" stroke="#EBEBEB"/>
<rect id="Rectangle_208" x="350" y="350" width="50" height="50" fill="#F8F8F8" stroke="#EBEBEB"/>
</g>
</g>
<g id="Background/Pattern_14" clip-path="url(#clip15_1_6637)">
<g id="Light_14">
<rect id="Rectangle_209" x="450" y="200" width="50" height="50" fill="#FEFEFE" stroke="#EBEBEB"/>
<rect id="Rectangle_210" x="400" y="250" width="50" height="50" fill="#FEFEFE" stroke="#EBEBEB"/>
<rect id="Rectangle_211" x="550" y="200" width="50" height="50" fill="#FEFEFE" stroke="#EBEBEB"/>
<rect id="Rectangle_212" x="500" y="250" width="50" height="50" fill="#FEFEFE" stroke="#EBEBEB"/>
<rect id="Rectangle_213" x="450" y="300" width="50" height="50" fill="#FEFEFE" stroke="#EBEBEB"/>
<rect id="Rectangle_214" x="400" y="350" width="50" height="50" fill="#FEFEFE" stroke="#EBEBEB"/>
<rect id="Rectangle_215" x="550" y="300" width="50" height="50" fill="#FEFEFE" stroke="#EBEBEB"/>
<rect id="Rectangle_216" x="500" y="350" width="50" height="50" fill="#FEFEFE" stroke="#EBEBEB"/>
</g>
<g id="Dark_14">
<rect id="Rectangle_217" x="400" y="200" width="50" height="50" fill="#F8F8F8" stroke="#EBEBEB"/>
<rect id="Rectangle_218" x="450" y="250" width="50" height="50" fill="#F8F8F8" stroke="#EBEBEB"/>
<rect id="Rectangle_219" x="500" y="200" width="50" height="50" fill="#F8F8F8" stroke="#EBEBEB"/>
<rect id="Rectangle_220" x="550" y="250" width="50" height="50" fill="#F8F8F8" stroke="#EBEBEB"/>
<rect id="Rectangle_221" x="400" y="300" width="50" height="50" fill="#F8F8F8" stroke="#EBEBEB"/>
<rect id="Rectangle_222" x="450" y="350" width="50" height="50" fill="#F8F8F8" stroke="#EBEBEB"/>
<rect id="Rectangle_223" x="500" y="300" width="50" height="50" fill="#F8F8F8" stroke="#EBEBEB"/>
<rect id="Rectangle_224" x="550" y="350" width="50" height="50" fill="#F8F8F8" stroke="#EBEBEB"/>
</g>
</g>
<g id="Background/Pattern_15" clip-path="url(#clip16_1_6637)">
<g id="Light_15">
<rect id="Rectangle_225" x="650" y="200" width="50" height="50" fill="#FEFEFE" stroke="#EBEBEB"/>
<rect id="Rectangle_226" x="600" y="250" width="50" height="50" fill="#FEFEFE" stroke="#EBEBEB"/>
<rect id="Rectangle_227" x="750" y="200" width="50" height="50" fill="#FEFEFE" stroke="#EBEBEB"/>
<rect id="Rectangle_228" x="700" y="250" width="50" height="50" fill="#FEFEFE" stroke="#EBEBEB"/>
<rect id="Rectangle_229" x="650" y="300" width="50" height="50" fill="#FEFEFE" stroke="#EBEBEB"/>
<rect id="Rectangle_230" x="600" y="350" width="50" height="50" fill="#FEFEFE" stroke="#EBEBEB"/>
<rect id="Rectangle_231" x="750" y="300" width="50" height="50" fill="#FEFEFE" stroke="#EBEBEB"/>
<rect id="Rectangle_232" x="700" y="350" width="50" height="50" fill="#FEFEFE" stroke="#EBEBEB"/>
</g>
<g id="Dark_15">
<rect id="Rectangle_233" x="600" y="200" width="50" height="50" fill="#F8F8F8" stroke="#EBEBEB"/>
<rect id="Rectangle_234" x="650" y="250" width="50" height="50" fill="#F8F8F8" stroke="#EBEBEB"/>
<rect id="Rectangle_235" x="700" y="200" width="50" height="50" fill="#F8F8F8" stroke="#EBEBEB"/>
<rect id="Rectangle_236" x="750" y="250" width="50" height="50" fill="#F8F8F8" stroke="#EBEBEB"/>
<rect id="Rectangle_237" x="600" y="300" width="50" height="50" fill="#F8F8F8" stroke="#EBEBEB"/>
<rect id="Rectangle_238" x="650" y="350" width="50" height="50" fill="#F8F8F8" stroke="#EBEBEB"/>
<rect id="Rectangle_239" x="700" y="300" width="50" height="50" fill="#F8F8F8" stroke="#EBEBEB"/>
<rect id="Rectangle_240" x="750" y="350" width="50" height="50" fill="#F8F8F8" stroke="#EBEBEB"/>
</g>
</g>
<g id="Background/Pattern_16" clip-path="url(#clip17_1_6637)">
<g id="Light_16">
<rect id="Rectangle_241" x="50" width="50" height="50" fill="#FEFEFE" stroke="#EBEBEB"/>
<rect id="Rectangle_242" y="50" width="50" height="50" fill="#FEFEFE" stroke="#EBEBEB"/>
<rect id="Rectangle_243" x="150" width="50" height="50" fill="#FEFEFE" stroke="#EBEBEB"/>
<rect id="Rectangle_244" x="100" y="50" width="50" height="50" fill="#FEFEFE" stroke="#EBEBEB"/>
<rect id="Rectangle_245" x="50" y="100" width="50" height="50" fill="#FEFEFE" stroke="#EBEBEB"/>
<rect id="Rectangle_246" y="150" width="50" height="50" fill="#FEFEFE" stroke="#EBEBEB"/>
<rect id="Rectangle_247" x="150" y="100" width="50" height="50" fill="#FEFEFE" stroke="#EBEBEB"/>
<rect id="Rectangle_248" x="100" y="150" width="50" height="50" fill="#FEFEFE" stroke="#EBEBEB"/>
</g>
<g id="Dark_16">
<rect id="Rectangle_249" width="50" height="50" fill="#F8F8F8" stroke="#EBEBEB"/>
<rect id="Rectangle_250" x="50" y="50" width="50" height="50" fill="#F8F8F8" stroke="#EBEBEB"/>
<rect id="Rectangle_251" x="100" width="50" height="50" fill="#F8F8F8" stroke="#EBEBEB"/>
<rect id="Rectangle_252" x="150" y="50" width="50" height="50" fill="#F8F8F8" stroke="#EBEBEB"/>
<rect id="Rectangle_253" y="100" width="50" height="50" fill="#F8F8F8" stroke="#EBEBEB"/>
<rect id="Rectangle_254" x="50" y="150" width="50" height="50" fill="#F8F8F8" stroke="#EBEBEB"/>
<rect id="Rectangle_255" x="100" y="100" width="50" height="50" fill="#F8F8F8" stroke="#EBEBEB"/>
<rect id="Rectangle_256" x="150" y="150" width="50" height="50" fill="#F8F8F8" stroke="#EBEBEB"/>
</g>
</g>
</g>
<g id="Props/Border/End">
<g id="Rectangle_257">
<mask id="path-257-inside-1_1_6637" fill="white">
<path d="M61 375H81V385C81 390.523 76.5228 395 71 395C65.4772 395 61 390.523 61 385V375Z"/>
</mask>
<path d="M61 375H81V385C81 390.523 76.5228 395 71 395C65.4772 395 61 390.523 61 385V375Z" fill="#50E3C2"/>
<path d="M61 375H81H61ZM82 385C82 391.075 77.0751 396 71 396C64.9249 396 60 391.075 60 385H62C62 389.971 66.0294 394 71 394C75.9706 394 80 389.971 80 385H82ZM71 396C64.9249 396 60 391.075 60 385V375H62V385C62 389.971 66.0294 394 71 394V396ZM82 375V385C82 391.075 77.0751 396 71 396V394C75.9706 394 80 389.971 80 385V375H82Z" fill="#3CCFAE" mask="url(#path-257-inside-1_1_6637)"/>
</g>
</g>
<g id="Props/Border/End_2">
<g id="Rectangle_258">
<mask id="path-259-inside-2_1_6637" fill="white">
<path d="M341 375H361V385C361 390.523 356.523 395 351 395C345.477 395 341 390.523 341 385V375Z"/>
</mask>
<path d="M341 375H361V385C361 390.523 356.523 395 351 395C345.477 395 341 390.523 341 385V375Z" fill="#50E3C2"/>
<path d="M341 375H361H341ZM362 385C362 391.075 357.075 396 351 396C344.925 396 340 391.075 340 385H342C342 389.971 346.029 394 351 394C355.971 394 360 389.971 360 385H362ZM351 396C344.925 396 340 391.075 340 385V375H342V385C342 389.971 346.029 394 351 394V396ZM362 375V385C362 391.075 357.075 396 351 396V394C355.971 394 360 389.971 360 385V375H362Z" fill="#3CCFAE" mask="url(#path-259-inside-2_1_6637)"/>
</g>
</g>
<g id="Props/Border/End_3">
<g id="Rectangle_259">
<mask id="path-261-inside-3_1_6637" fill="white">
<path d="M740 122L720 122L720 112C720 106.477 724.477 102 730 102C735.523 102 740 106.477 740 112L740 122Z"/>
</mask>
<path d="M740 122L720 122L720 112C720 106.477 724.477 102 730 102C735.523 102 740 106.477 740 112L740 122Z" fill="#50E3C2"/>
<path d="M740 122L720 122L740 122ZM719 112C719 105.925 723.925 101 730 101C736.075 101 741 105.925 741 112L739 112C739 107.029 734.971 103 730 103C725.029 103 721 107.029 721 112L719 112ZM730 101C736.075 101 741 105.925 741 112L741 122L739 122L739 112C739 107.029 734.971 103 730 103L730 101ZM719 122L719 112C719 105.925 723.925 101 730 101L730 103C725.029 103 721 107.029 721 112L721 122L719 122Z" fill="#3CCFAE" mask="url(#path-261-inside-3_1_6637)"/>
</g>
</g>
<g id="Props/Border/End_4">
<g id="Rectangle_260">
<mask id="path-263-inside-4_1_6637" fill="white">
<path d="M460 122L440 122L440 112C440 106.477 444.477 102 450 102C455.523 102 460 106.477 460 112L460 122Z"/>
</mask>
<path d="M460 122L440 122L440 112C440 106.477 444.477 102 450 102C455.523 102 460 106.477 460 112L460 122Z" fill="#50E3C2"/>
<path d="M460 122L440 122L460 122ZM439 112C439 105.925 443.925 101 450 101C456.075 101 461 105.925 461 112L459 112C459 107.029 454.971 103 450 103C445.029 103 441 107.029 441 112L439 112ZM450 101C456.075 101 461 105.925 461 112L461 122L459 122L459 112C459 107.029 454.971 103 450 103L450 101ZM439 122L439 112C439 105.925 443.925 101 450 101L450 103C445.029 103 441 107.029 441 112L441 122L439 122Z" fill="#3CCFAE" mask="url(#path-263-inside-4_1_6637)"/>
</g>
</g>
<g id="Group">
<g id="Paddle">
<rect id="Rectangle_261" x="520" y="76" width="20" height="75" rx="10" transform="rotate(-90 520 76)" fill="#212121"/>
</g>
<g id="Trace">
<rect id="Rectangle_262" x="440" y="71" width="10" height="300" transform="rotate(-90 440 71)" fill="#212121" fill-opacity="0.1"/>
</g>
</g>
<g id="Props/Ball/B">
<circle id="Oval" cx="590" cy="262" r="10" fill="#212121"/>
</g>
<g id="Props/Border/Side">
<g id="Rectangle_263">
<mask id="path-268-inside-5_1_6637" fill="white">
<path d="M720 122H740V422H720V122Z"/>
</mask>
<path d="M720 122H740V422H720V122Z" fill="#50E3C2"/>
<path d="M739 122V422H741V122H739ZM721 422V122H719V422H721Z" fill="#3CCFAE" mask="url(#path-268-inside-5_1_6637)"/>
</g>
</g>
<g id="Props/Border/Side_2">
<g id="Rectangle_264">
<mask id="path-270-inside-6_1_6637" fill="white">
<path d="M440 122H460V422H440V122Z"/>
</mask>
<path d="M440 122H460V422H440V122Z" fill="#50E3C2"/>
<path d="M459 122V422H461V122H459ZM441 422V122H439V422H441Z" fill="#3CCFAE" mask="url(#path-270-inside-6_1_6637)"/>
</g>
</g>
<g id="Props/Border/Side_3">
<g id="Rectangle_265">
<mask id="path-272-inside-7_1_6637" fill="white">
<path d="M720 422L720 442L460 442L460 422L720 422Z"/>
</mask>
<path d="M720 422L720 442L460 442L460 422L720 422Z" fill="#50E3C2"/>
<path d="M720 441L460 441L460 443L720 443L720 441ZM460 423L720 423L720 421L460 421L460 423Z" fill="#3CCFAE" mask="url(#path-272-inside-7_1_6637)"/>
</g>
</g>
<g id="Props/Border/Side_4">
<g id="Rectangle_266">
<mask id="path-274-inside-8_1_6637" fill="white">
<path d="M61 75H81V375H61V75Z"/>
</mask>
<path d="M61 75H81V375H61V75Z" fill="#50E3C2"/>
<path d="M80 75V375H82V75H80ZM62 375V75H60V375H62Z" fill="#3CCFAE" mask="url(#path-274-inside-8_1_6637)"/>
</g>
</g>
<g id="Props/Border/Side_5">
<g id="Rectangle_267">
<mask id="path-276-inside-9_1_6637" fill="white">
<path d="M341 75H361V375H341V75Z"/>
</mask>
<path d="M341 75H361V375H341V75Z" fill="#50E3C2"/>
<path d="M360 75V375H362V75H360ZM342 375V75H340V375H342Z" fill="#3CCFAE" mask="url(#path-276-inside-9_1_6637)"/>
</g>
</g>
<g id="Props/Border/Corner">
<g id="Rectangle_268">
<mask id="path-278-inside-10_1_6637" fill="white">
<path d="M61 75.9999V65.9999C61 60.4771 65.4772 55.9999 71 55.9999H81V75.9999H61Z"/>
</mask>
<path d="M61 75.9999V65.9999C61 60.4771 65.4772 55.9999 71 55.9999H81V75.9999H61Z" fill="#50E3C2"/>
<path d="M60 75.9999V65.9999C60 59.9248 64.9249 54.9999 71 54.9999V56.9999C66.0294 56.9999 62 61.0294 62 65.9999V75.9999H60ZM81 55.9999V75.9999V55.9999ZM81 75.9999H61H81ZM60 65.9999C60 59.9248 64.9249 54.9999 71 54.9999H81V56.9999H71C66.0294 56.9999 62 61.0294 62 65.9999H60Z" fill="#3CCFAE" mask="url(#path-278-inside-10_1_6637)"/>
</g>
<rect id="Rectangle_269" x="80" y="74.9999" width="1" height="1" fill="#3CCFAE"/>
</g>
<g id="Props/Border/Corner_2">
<g id="Rectangle_270">
<mask id="path-281-inside-11_1_6637" fill="white">
<path d="M341 55.9999L351 55.9999C356.523 55.9999 361 60.4771 361 65.9999L361 75.9999L341 75.9999L341 55.9999Z"/>
</mask>
<path d="M341 55.9999L351 55.9999C356.523 55.9999 361 60.4771 361 65.9999L361 75.9999L341 75.9999L341 55.9999Z" fill="#50E3C2"/>
<path d="M341 54.9999L351 54.9999C357.075 54.9999 362 59.9248 362 65.9999L360 65.9999C360 61.0294 355.971 56.9999 351 56.9999L341 56.9999L341 54.9999ZM361 75.9999L341 75.9999L361 75.9999ZM341 75.9999L341 55.9999L341 75.9999ZM351 54.9999C357.075 54.9999 362 59.9248 362 65.9999L362 75.9999L360 75.9999L360 65.9999C360 61.0294 355.971 56.9999 351 56.9999L351 54.9999Z" fill="#3CCFAE" mask="url(#path-281-inside-11_1_6637)"/>
</g>
<rect id="Rectangle_271" x="342" y="74.9999" width="1" height="1" transform="rotate(90 342 74.9999)" fill="#3CCFAE"/>
</g>
<g id="Props/Border/Corner_3">
<g id="Rectangle_272">
<mask id="path-284-inside-12_1_6637" fill="white">
<path d="M740 422L740 432C740 437.523 735.523 442 730 442L720 442L720 422L740 422Z"/>
</mask>
<path d="M740 422L740 432C740 437.523 735.523 442 730 442L720 442L720 422L740 422Z" fill="#50E3C2"/>
<path d="M741 422L741 432C741 438.075 736.075 443 730 443L730 441C734.971 441 739 436.971 739 432L739 422L741 422ZM720 442L720 422L720 442ZM720 422L740 422L720 422ZM741 432C741 438.075 736.075 443 730 443L720 443L720 441L730 441C734.971 441 739 436.971 739 432L741 432Z" fill="#3CCFAE" mask="url(#path-284-inside-12_1_6637)"/>
</g>
<rect id="Rectangle_273" x="721" y="423" width="1" height="1" transform="rotate(-180 721 423)" fill="#3CCFAE"/>
</g>
<g id="Props/Border/Corner_4">
<g id="Rectangle_274">
<mask id="path-287-inside-13_1_6637" fill="white">
<path d="M460 442L450 442C444.477 442 440 437.523 440 432L440 422L460 422L460 442Z"/>
</mask>
<path d="M460 442L450 442C444.477 442 440 437.523 440 432L440 422L460 422L460 442Z" fill="#50E3C2"/>
<path d="M460 443L450 443C443.925 443 439 438.075 439 432L441 432C441 436.971 445.029 441 450 441L460 441L460 443ZM440 422L460 422L440 422ZM460 422L460 442L460 422ZM450 443C443.925 443 439 438.075 439 432L439 422L441 422L441 432C441 436.971 445.029 441 450 441L450 443Z" fill="#3CCFAE" mask="url(#path-287-inside-13_1_6637)"/>
</g>
<rect id="Rectangle_275" x="459" y="423" width="1" height="1" transform="rotate(-90 459 423)" fill="#3CCFAE"/>
</g>
<g id="Props/Border/Side_6">
<g id="Rectangle_276">
<mask id="path-290-inside-14_1_6637" fill="white">
<path d="M341 56L341 76L81 76L81 56L341 56Z"/>
</mask>
<path d="M341 56L341 76L81 76L81 56L341 56Z" fill="#50E3C2"/>
<path d="M341 75L81 75L81 77L341 77L341 75ZM81 57L341 57L341 55L81 55L81 57Z" fill="#3CCFAE" mask="url(#path-290-inside-14_1_6637)"/>
</g>
</g>
<g id="Group_2">
<g id="Paddle_2">
<rect id="Rectangle_277" x="136" y="442" width="20" height="75" rx="10" transform="rotate(-90 136 442)" fill="#212121"/>
</g>
<g id="Trace_2">
<rect id="Rectangle_278" x="56" y="437" width="10" height="300" transform="rotate(-90 56 437)" fill="#212121" fill-opacity="0.1"/>
</g>
</g>
<g id="Props/Ball/B_2">
<circle id="Oval_2" cx="158" cy="286" r="10" fill="#212121"/>
</g>
<g id="Props/Ball/A">
<g id="Oval_3" filter="url(#filter0_d_1_6637)">
<circle cx="257" cy="173" r="10" fill="#50E3C2"/>
<circle cx="257" cy="173" r="9.5" stroke="#3CCFAE"/>
</g>
</g>
<g id="Help/ControlsArrows">
<g id="UI/Help/ControlArrows/KeyUp" opacity="0.2" clip-path="url(#clip18_1_6637)">
<rect id="Rectangle_279" x="228.763" y="513" width="40.7632" height="40.7632" rx="9" transform="rotate(-180 228.763 513)" stroke="#212121" stroke-width="2"/>
<path id="Triangle" d="M208.725 487.79L212.952 496.243C213.174 496.686 213.084 496.889 213.057 496.933C213.029 496.977 212.888 497.148 212.392 497.148L204.496 497.148C203.999 497.148 203.858 496.976 203.831 496.933C203.804 496.889 203.714 496.686 203.935 496.243L208.162 487.79C208.277 487.56 208.382 487.443 208.444 487.392C208.506 487.443 208.611 487.56 208.725 487.79ZM208.487 487.362C208.487 487.362 208.486 487.362 208.486 487.362L208.487 487.362ZM208.402 487.362C208.401 487.362 208.4 487.362 208.4 487.362L208.402 487.362Z" stroke="#212121" stroke-width="2"/>
</g>
<g id="UI/Help/ControlArrows/KeyRight" clip-path="url(#clip19_1_6637)">
<rect id="Rectangle_280" x="285.763" y="529" width="40.7632" height="40.7632" rx="9" transform="rotate(90 285.763 529)" stroke="#212121" stroke-width="2"/>
<path id="Triangle_2" d="M269.49 550.383L261.037 554.61C260.593 554.832 260.39 554.742 260.347 554.715C260.303 554.687 260.132 554.546 260.132 554.049V546.154C260.132 545.657 260.303 545.516 260.347 545.489C260.391 545.461 260.594 545.372 261.037 545.593L269.49 549.82C269.719 549.934 269.836 550.04 269.888 550.101C269.836 550.163 269.719 550.269 269.49 550.383ZM269.918 550.145C269.918 550.145 269.917 550.144 269.917 550.143L269.918 550.145ZM269.917 550.06C269.917 550.059 269.918 550.058 269.918 550.058L269.917 550.06Z" stroke="#212121" stroke-width="2"/>
</g>
<g id="UI/Help/ControlArrows/KeyDown" opacity="0.2" clip-path="url(#clip20_1_6637)">
<rect id="Rectangle_281" x="228.763" y="569.763" width="40.7632" height="40.7632" rx="9" transform="rotate(-180 228.763 569.763)" stroke="#212121" stroke-width="2"/>
<path id="Triangle_3" d="M208.162 553.49L203.935 545.037C203.714 544.593 203.804 544.39 203.831 544.347C203.858 544.303 204 544.132 204.496 544.132H212.392C212.888 544.132 213.03 544.303 213.057 544.347C213.084 544.391 213.174 544.594 212.952 545.037L208.725 553.49C208.611 553.719 208.506 553.836 208.444 553.888C208.382 553.836 208.277 553.719 208.162 553.49ZM208.401 553.918C208.401 553.918 208.401 553.917 208.402 553.917L208.401 553.918ZM208.486 553.917C208.486 553.917 208.487 553.918 208.487 553.918L208.486 553.917Z" stroke="#212121" stroke-width="2"/>
</g>
<g id="UI/Help/ControlArrows/KeyLeft" clip-path="url(#clip21_1_6637)">
<rect id="Rectangle_282" x="131" y="569.763" width="40.7632" height="40.7632" rx="9" transform="rotate(-90 131 569.763)" stroke="#212121" stroke-width="2"/>
<path id="Triangle_4" d="M147.868 549.82L156.322 545.593C156.765 545.371 156.968 545.462 157.012 545.489C157.056 545.516 157.227 545.658 157.227 546.154V554.049C157.227 554.546 157.055 554.687 157.012 554.715C156.968 554.742 156.765 554.832 156.322 554.61L147.868 550.383C147.639 550.269 147.522 550.164 147.471 550.102C147.522 550.04 147.639 549.935 147.868 549.82ZM147.441 550.058C147.441 550.058 147.441 550.059 147.441 550.06L147.441 550.058ZM147.441 550.143C147.441 550.144 147.441 550.145 147.441 550.145L147.441 550.143Z" stroke="#212121" stroke-width="2"/>
</g>
</g>
<g id="Help/ControlsWASD">
<g id="UI/Help/ControlLetters/A" clip-path="url(#clip22_1_6637)">
<rect id="Rectangle_283" x="512" y="570.485" width="40.9707" height="40.9707" rx="9" transform="rotate(-90 512 570.485)" stroke="#212121" stroke-width="2"/>
<text id="A" fill="#212121" xml:space="preserve" style="white-space: pre" font-family="Helvetica" font-size="24" letter-spacing="0px"><tspan x="525.222" y="559.279">A</tspan></text>
</g>
<g id="UI/Help/ControlLetters/S" opacity="0.2" clip-path="url(#clip23_1_6637)">
<text id="S" fill="#212121" xml:space="preserve" style="white-space: pre" font-family="Helvetica" font-size="24" font-weight="300" letter-spacing="0px"><tspan x="582.736" y="559.28">S</tspan></text>
<rect id="Rectangle_284" x="610.485" y="570.485" width="40.9707" height="40.9707" rx="9" transform="rotate(-180 610.485 570.485)" stroke="#212121" stroke-width="2"/>
</g>
<g id="UI/Help/ControlLetters/W" opacity="0.2" clip-path="url(#clip24_1_6637)">
<text id="W" fill="#212121" xml:space="preserve" style="white-space: pre" font-family="Helvetica" font-size="24" font-weight="300" letter-spacing="0px"><tspan x="579" y="502.28">W</tspan></text>
<rect id="Rectangle_285" x="569.515" y="472" width="40.9707" height="40.9707" rx="9" stroke="#212121" stroke-width="2"/>
</g>
<g id="UI/Help/ControlLetters/D">
<text id="D" fill="#212121" xml:space="preserve" style="white-space: pre" font-family="Helvetica" font-size="24" letter-spacing="0px"><tspan x="639.921" y="559.279">D</tspan></text>
<rect id="Rectangle_286" x="668" y="529.515" width="40.9707" height="40.9707" rx="9" transform="rotate(90 668 529.515)" stroke="#212121" stroke-width="2"/>
</g>
</g>
<g id="UI/Help/ControlArrows/X" clip-path="url(#clip25_1_6637)">
<rect id="Rectangle_287" x="378" y="571.971" width="42.9707" height="42.9707" rx="10" transform="rotate(-90 378 571.971)" fill="#212121" fill-opacity="0.8"/>
<text id="A_2" fill="white" xml:space="preserve" style="white-space: pre" font-family="Helvetica" font-size="24" letter-spacing="0px"><tspan x="392" y="559.279">X</tspan></text>
</g>
</g>
<defs>
<filter id="filter0_d_1_6637" x="243" y="161" width="28" height="28" filterUnits="userSpaceOnUse" color-interpolation-filters="sRGB">
<feFlood flood-opacity="0" result="BackgroundImageFix"/>
<feColorMatrix in="SourceAlpha" type="matrix" values="0 0 0 0 0 0 0 0 0 0 0 0 0 0 0 0 0 0 127 0" result="hardAlpha"/>
<feOffset dy="2"/>
<feGaussianBlur stdDeviation="2"/>
<feColorMatrix type="matrix" values="0 0 0 0 0 0 0 0 0 0 0 0 0 0 0 0 0 0 0.1 0"/>
<feBlend mode="normal" in2="BackgroundImageFix" result="effect1_dropShadow_1_6637"/>
<feBlend mode="normal" in="SourceGraphic" in2="effect1_dropShadow_1_6637" result="shape"/>
</filter>
<clipPath id="clip0_1_6637">
<rect width="800" height="600" fill="white"/>
</clipPath>
<clipPath id="clip1_1_6637">
<rect width="800" height="600" fill="white"/>
</clipPath>
<clipPath id="clip2_1_6637">
<rect width="200" height="200" fill="white" transform="translate(0 400)"/>
</clipPath>
<clipPath id="clip3_1_6637">
<rect width="200" height="200" fill="white" transform="translate(200 400)"/>
</clipPath>
<clipPath id="clip4_1_6637">
<rect width="200" height="200" fill="white" transform="translate(400 400)"/>
</clipPath>
<clipPath id="clip5_1_6637">
<rect width="200" height="200" fill="white" transform="translate(600 400)"/>
</clipPath>
<clipPath id="clip6_1_6637">
<rect width="200" height="200" fill="white" transform="translate(200)"/>
</clipPath>
<clipPath id="clip7_1_6637">
<rect width="200" height="200" fill="white" transform="translate(400)"/>
</clipPath>
<clipPath id="clip8_1_6637">
<rect width="200" height="200" fill="white" transform="translate(600)"/>
</clipPath>
<clipPath id="clip9_1_6637">
<rect width="200" height="200" fill="white" transform="translate(0 200)"/>
</clipPath>
<clipPath id="clip10_1_6637">
<rect width="200" height="200" fill="white" transform="translate(200 200)"/>
</clipPath>
<clipPath id="clip11_1_6637">
<rect width="200" height="200" fill="white" transform="translate(400 200)"/>
</clipPath>
<clipPath id="clip12_1_6637">
<rect width="200" height="200" fill="white" transform="translate(600 200)"/>
</clipPath>
<clipPath id="clip13_1_6637">
<rect width="200" height="200" fill="white" transform="translate(0 200)"/>
</clipPath>
<clipPath id="clip14_1_6637">
<rect width="200" height="200" fill="white" transform="translate(200 200)"/>
</clipPath>
<clipPath id="clip15_1_6637">
<rect width="200" height="200" fill="white" transform="translate(400 200)"/>
</clipPath>
<clipPath id="clip16_1_6637">
<rect width="200" height="200" fill="white" transform="translate(600 200)"/>
</clipPath>
<clipPath id="clip17_1_6637">
<rect width="200" height="200" fill="white"/>
</clipPath>
<clipPath id="clip18_1_6637">
<rect width="43" height="43" fill="white" transform="translate(187 471)"/>
</clipPath>
<clipPath id="clip19_1_6637">
<rect width="43" height="43" fill="white" transform="translate(244 528)"/>
</clipPath>
<clipPath id="clip20_1_6637">
<rect width="43" height="43" fill="white" transform="translate(187 528)"/>
</clipPath>
<clipPath id="clip21_1_6637">
<rect width="43" height="43" fill="white" transform="translate(130 528)"/>
</clipPath>
<clipPath id="clip22_1_6637">
<rect width="43" height="44" fill="white" transform="translate(511 528)"/>
</clipPath>
<clipPath id="clip23_1_6637">
<rect width="44" height="44" fill="white" transform="translate(568 528)"/>
</clipPath>
<clipPath id="clip24_1_6637">
<rect width="44" height="43" fill="white" transform="translate(568 471)"/>
</clipPath>
<clipPath id="clip25_1_6637">
<rect width="43" height="43" fill="white" transform="translate(378 529)"/>
</clipPath>
</defs>
</svg>
