<svg width="800" height="600" viewBox="0 0 800 600" fill="none" xmlns="http://www.w3.org/2000/svg">
<g id="Scene/GameB" clip-path="url(#clip0_1_6677)">
<rect width="800" height="600" fill="white"/>
<g id="Background/Screen" clip-path="url(#clip1_1_6677)">
<g id="Background/Pattern" clip-path="url(#clip2_1_6677)">
<g id="Light">
<rect id="Rectangle" x="50" y="400" width="50" height="50" fill="#FEFEFE" stroke="#EBEBEB"/>
<rect id="Rectangle_2" y="450" width="50" height="50" fill="#FEFEFE" stroke="#EBEBEB"/>
<rect id="Rectangle_3" x="150" y="400" width="50" height="50" fill="#FEFEFE" stroke="#EBEBEB"/>
<rect id="Rectangle_4" x="100" y="450" width="50" height="50" fill="#FEFEFE" stroke="#EBEBEB"/>
<rect id="Rectangle_5" x="50" y="500" width="50" height="50" fill="#FEFEFE" stroke="#EBEBEB"/>
<rect id="Rectangle_6" y="550" width="50" height="50" fill="#FEFEFE" stroke="#EBEBEB"/>
<rect id="Rectangle_7" x="150" y="500" width="50" height="50" fill="#FEFEFE" stroke="#EBEBEB"/>
<rect id="Rectangle_8" x="100" y="550" width="50" height="50" fill="#FEFEFE" stroke="#EBEBEB"/>
</g>
<g id="Dark">
<rect id="Rectangle_9" y="400" width="50" height="50" fill="#F8F8F8" stroke="#EBEBEB"/>
<rect id="Rectangle_10" x="50" y="450" width="50" height="50" fill="#F8F8F8" stroke="#EBEBEB"/>
<rect id="Rectangle_11" x="100" y="400" width="50" height="50" fill="#F8F8F8" stroke="#EBEBEB"/>
<rect id="Rectangle_12" x="150" y="450" width="50" height="50" fill="#F8F8F8" stroke="#EBEBEB"/>
<rect id="Rectangle_13" y="500" width="50" height="50" fill="#F8F8F8" stroke="#EBEBEB"/>
<rect id="Rectangle_14" x="50" y="550" width="50" height="50" fill="#F8F8F8" stroke="#EBEBEB"/>
<rect id="Rectangle_15" x="100" y="500" width="50" height="50" fill="#F8F8F8" stroke="#EBEBEB"/>
<rect id="Rectangle_16" x="150" y="550" width="50" height="50" fill="#F8F8F8" stroke="#EBEBEB"/>
</g>
</g>
<g id="Background/Pattern_2" clip-path="url(#clip3_1_6677)">
<g id="Light_2">
<rect id="Rectangle_17" x="250" y="400" width="50" height="50" fill="#FEFEFE" stroke="#EBEBEB"/>
<rect id="Rectangle_18" x="200" y="450" width="50" height="50" fill="#FEFEFE" stroke="#EBEBEB"/>
<rect id="Rectangle_19" x="350" y="400" width="50" height="50" fill="#FEFEFE" stroke="#EBEBEB"/>
<rect id="Rectangle_20" x="300" y="450" width="50" height="50" fill="#FEFEFE" stroke="#EBEBEB"/>
<rect id="Rectangle_21" x="250" y="500" width="50" height="50" fill="#FEFEFE" stroke="#EBEBEB"/>
<rect id="Rectangle_22" x="200" y="550" width="50" height="50" fill="#FEFEFE" stroke="#EBEBEB"/>
<rect id="Rectangle_23" x="350" y="500" width="50" height="50" fill="#FEFEFE" stroke="#EBEBEB"/>
<rect id="Rectangle_24" x="300" y="550" width="50" height="50" fill="#FEFEFE" stroke="#EBEBEB"/>
</g>
<g id="Dark_2">
<rect id="Rectangle_25" x="200" y="400" width="50" height="50" fill="#F8F8F8" stroke="#EBEBEB"/>
<rect id="Rectangle_26" x="250" y="450" width="50" height="50" fill="#F8F8F8" stroke="#EBEBEB"/>
<rect id="Rectangle_27" x="300" y="400" width="50" height="50" fill="#F8F8F8" stroke="#EBEBEB"/>
<rect id="Rectangle_28" x="350" y="450" width="50" height="50" fill="#F8F8F8" stroke="#EBEBEB"/>
<rect id="Rectangle_29" x="200" y="500" width="50" height="50" fill="#F8F8F8" stroke="#EBEBEB"/>
<rect id="Rectangle_30" x="250" y="550" width="50" height="50" fill="#F8F8F8" stroke="#EBEBEB"/>
<rect id="Rectangle_31" x="300" y="500" width="50" height="50" fill="#F8F8F8" stroke="#EBEBEB"/>
<rect id="Rectangle_32" x="350" y="550" width="50" height="50" fill="#F8F8F8" stroke="#EBEBEB"/>
</g>
</g>
<g id="Background/Pattern_3" clip-path="url(#clip4_1_6677)">
<g id="Light_3">
<rect id="Rectangle_33" x="450" y="400" width="50" height="50" fill="#FEFEFE" stroke="#EBEBEB"/>
<rect id="Rectangle_34" x="400" y="450" width="50" height="50" fill="#FEFEFE" stroke="#EBEBEB"/>
<rect id="Rectangle_35" x="550" y="400" width="50" height="50" fill="#FEFEFE" stroke="#EBEBEB"/>
<rect id="Rectangle_36" x="500" y="450" width="50" height="50" fill="#FEFEFE" stroke="#EBEBEB"/>
<rect id="Rectangle_37" x="450" y="500" width="50" height="50" fill="#FEFEFE" stroke="#EBEBEB"/>
<rect id="Rectangle_38" x="400" y="550" width="50" height="50" fill="#FEFEFE" stroke="#EBEBEB"/>
<rect id="Rectangle_39" x="550" y="500" width="50" height="50" fill="#FEFEFE" stroke="#EBEBEB"/>
<rect id="Rectangle_40" x="500" y="550" width="50" height="50" fill="#FEFEFE" stroke="#EBEBEB"/>
</g>
<g id="Dark_3">
<rect id="Rectangle_41" x="400" y="400" width="50" height="50" fill="#F8F8F8" stroke="#EBEBEB"/>
<rect id="Rectangle_42" x="450" y="450" width="50" height="50" fill="#F8F8F8" stroke="#EBEBEB"/>
<rect id="Rectangle_43" x="500" y="400" width="50" height="50" fill="#F8F8F8" stroke="#EBEBEB"/>
<rect id="Rectangle_44" x="550" y="450" width="50" height="50" fill="#F8F8F8" stroke="#EBEBEB"/>
<rect id="Rectangle_45" x="400" y="500" width="50" height="50" fill="#F8F8F8" stroke="#EBEBEB"/>
<rect id="Rectangle_46" x="450" y="550" width="50" height="50" fill="#F8F8F8" stroke="#EBEBEB"/>
<rect id="Rectangle_47" x="500" y="500" width="50" height="50" fill="#F8F8F8" stroke="#EBEBEB"/>
<rect id="Rectangle_48" x="550" y="550" width="50" height="50" fill="#F8F8F8" stroke="#EBEBEB"/>
</g>
</g>
<g id="Background/Pattern_4" clip-path="url(#clip5_1_6677)">
<g id="Light_4">
<rect id="Rectangle_49" x="650" y="400" width="50" height="50" fill="#FEFEFE" stroke="#EBEBEB"/>
<rect id="Rectangle_50" x="600" y="450" width="50" height="50" fill="#FEFEFE" stroke="#EBEBEB"/>
<rect id="Rectangle_51" x="750" y="400" width="50" height="50" fill="#FEFEFE" stroke="#EBEBEB"/>
<rect id="Rectangle_52" x="700" y="450" width="50" height="50" fill="#FEFEFE" stroke="#EBEBEB"/>
<rect id="Rectangle_53" x="650" y="500" width="50" height="50" fill="#FEFEFE" stroke="#EBEBEB"/>
<rect id="Rectangle_54" x="600" y="550" width="50" height="50" fill="#FEFEFE" stroke="#EBEBEB"/>
<rect id="Rectangle_55" x="750" y="500" width="50" height="50" fill="#FEFEFE" stroke="#EBEBEB"/>
<rect id="Rectangle_56" x="700" y="550" width="50" height="50" fill="#FEFEFE" stroke="#EBEBEB"/>
</g>
<g id="Dark_4">
<rect id="Rectangle_57" x="600" y="400" width="50" height="50" fill="#F8F8F8" stroke="#EBEBEB"/>
<rect id="Rectangle_58" x="650" y="450" width="50" height="50" fill="#F8F8F8" stroke="#EBEBEB"/>
<rect id="Rectangle_59" x="700" y="400" width="50" height="50" fill="#F8F8F8" stroke="#EBEBEB"/>
<rect id="Rectangle_60" x="750" y="450" width="50" height="50" fill="#F8F8F8" stroke="#EBEBEB"/>
<rect id="Rectangle_61" x="600" y="500" width="50" height="50" fill="#F8F8F8" stroke="#EBEBEB"/>
<rect id="Rectangle_62" x="650" y="550" width="50" height="50" fill="#F8F8F8" stroke="#EBEBEB"/>
<rect id="Rectangle_63" x="700" y="500" width="50" height="50" fill="#F8F8F8" stroke="#EBEBEB"/>
<rect id="Rectangle_64" x="750" y="550" width="50" height="50" fill="#F8F8F8" stroke="#EBEBEB"/>
</g>
</g>
<g id="Background/Pattern_5" clip-path="url(#clip6_1_6677)">
<g id="Light_5">
<rect id="Rectangle_65" x="250" width="50" height="50" fill="#FEFEFE" stroke="#EBEBEB"/>
<rect id="Rectangle_66" x="200" y="50" width="50" height="50" fill="#FEFEFE" stroke="#EBEBEB"/>
<rect id="Rectangle_67" x="350" width="50" height="50" fill="#FEFEFE" stroke="#EBEBEB"/>
<rect id="Rectangle_68" x="300" y="50" width="50" height="50" fill="#FEFEFE" stroke="#EBEBEB"/>
<rect id="Rectangle_69" x="250" y="100" width="50" height="50" fill="#FEFEFE" stroke="#EBEBEB"/>
<rect id="Rectangle_70" x="200" y="150" width="50" height="50" fill="#FEFEFE" stroke="#EBEBEB"/>
<rect id="Rectangle_71" x="350" y="100" width="50" height="50" fill="#FEFEFE" stroke="#EBEBEB"/>
<rect id="Rectangle_72" x="300" y="150" width="50" height="50" fill="#FEFEFE" stroke="#EBEBEB"/>
</g>
<g id="Dark_5">
<rect id="Rectangle_73" x="200" width="50" height="50" fill="#F8F8F8" stroke="#EBEBEB"/>
<rect id="Rectangle_74" x="250" y="50" width="50" height="50" fill="#F8F8F8" stroke="#EBEBEB"/>
<rect id="Rectangle_75" x="300" width="50" height="50" fill="#F8F8F8" stroke="#EBEBEB"/>
<rect id="Rectangle_76" x="350" y="50" width="50" height="50" fill="#F8F8F8" stroke="#EBEBEB"/>
<rect id="Rectangle_77" x="200" y="100" width="50" height="50" fill="#F8F8F8" stroke="#EBEBEB"/>
<rect id="Rectangle_78" x="250" y="150" width="50" height="50" fill="#F8F8F8" stroke="#EBEBEB"/>
<rect id="Rectangle_79" x="300" y="100" width="50" height="50" fill="#F8F8F8" stroke="#EBEBEB"/>
<rect id="Rectangle_80" x="350" y="150" width="50" height="50" fill="#F8F8F8" stroke="#EBEBEB"/>
</g>
</g>
<g id="Background/Pattern_6" clip-path="url(#clip7_1_6677)">
<g id="Light_6">
<rect id="Rectangle_81" x="450" width="50" height="50" fill="#FEFEFE" stroke="#EBEBEB"/>
<rect id="Rectangle_82" x="400" y="50" width="50" height="50" fill="#FEFEFE" stroke="#EBEBEB"/>
<rect id="Rectangle_83" x="550" width="50" height="50" fill="#FEFEFE" stroke="#EBEBEB"/>
<rect id="Rectangle_84" x="500" y="50" width="50" height="50" fill="#FEFEFE" stroke="#EBEBEB"/>
<rect id="Rectangle_85" x="450" y="100" width="50" height="50" fill="#FEFEFE" stroke="#EBEBEB"/>
<rect id="Rectangle_86" x="400" y="150" width="50" height="50" fill="#FEFEFE" stroke="#EBEBEB"/>
<rect id="Rectangle_87" x="550" y="100" width="50" height="50" fill="#FEFEFE" stroke="#EBEBEB"/>
<rect id="Rectangle_88" x="500" y="150" width="50" height="50" fill="#FEFEFE" stroke="#EBEBEB"/>
</g>
<g id="Dark_6">
<rect id="Rectangle_89" x="400" width="50" height="50" fill="#F8F8F8" stroke="#EBEBEB"/>
<rect id="Rectangle_90" x="450" y="50" width="50" height="50" fill="#F8F8F8" stroke="#EBEBEB"/>
<rect id="Rectangle_91" x="500" width="50" height="50" fill="#F8F8F8" stroke="#EBEBEB"/>
<rect id="Rectangle_92" x="550" y="50" width="50" height="50" fill="#F8F8F8" stroke="#EBEBEB"/>
<rect id="Rectangle_93" x="400" y="100" width="50" height="50" fill="#F8F8F8" stroke="#EBEBEB"/>
<rect id="Rectangle_94" x="450" y="150" width="50" height="50" fill="#F8F8F8" stroke="#EBEBEB"/>
<rect id="Rectangle_95" x="500" y="100" width="50" height="50" fill="#F8F8F8" stroke="#EBEBEB"/>
<rect id="Rectangle_96" x="550" y="150" width="50" height="50" fill="#F8F8F8" stroke="#EBEBEB"/>
</g>
</g>
<g id="Background/Pattern_7" clip-path="url(#clip8_1_6677)">
<g id="Light_7">
<rect id="Rectangle_97" x="650" width="50" height="50" fill="#FEFEFE" stroke="#EBEBEB"/>
<rect id="Rectangle_98" x="600" y="50" width="50" height="50" fill="#FEFEFE" stroke="#EBEBEB"/>
<rect id="Rectangle_99" x="750" width="50" height="50" fill="#FEFEFE" stroke="#EBEBEB"/>
<rect id="Rectangle_100" x="700" y="50" width="50" height="50" fill="#FEFEFE" stroke="#EBEBEB"/>
<rect id="Rectangle_101" x="650" y="100" width="50" height="50" fill="#FEFEFE" stroke="#EBEBEB"/>
<rect id="Rectangle_102" x="600" y="150" width="50" height="50" fill="#FEFEFE" stroke="#EBEBEB"/>
<rect id="Rectangle_103" x="750" y="100" width="50" height="50" fill="#FEFEFE" stroke="#EBEBEB"/>
<rect id="Rectangle_104" x="700" y="150" width="50" height="50" fill="#FEFEFE" stroke="#EBEBEB"/>
</g>
<g id="Dark_7">
<rect id="Rectangle_105" x="600" width="50" height="50" fill="#F8F8F8" stroke="#EBEBEB"/>
<rect id="Rectangle_106" x="650" y="50" width="50" height="50" fill="#F8F8F8" stroke="#EBEBEB"/>
<rect id="Rectangle_107" x="700" width="50" height="50" fill="#F8F8F8" stroke="#EBEBEB"/>
<rect id="Rectangle_108" x="750" y="50" width="50" height="50" fill="#F8F8F8" stroke="#EBEBEB"/>
<rect id="Rectangle_109" x="600" y="100" width="50" height="50" fill="#F8F8F8" stroke="#EBEBEB"/>
<rect id="Rectangle_110" x="650" y="150" width="50" height="50" fill="#F8F8F8" stroke="#EBEBEB"/>
<rect id="Rectangle_111" x="700" y="100" width="50" height="50" fill="#F8F8F8" stroke="#EBEBEB"/>
<rect id="Rectangle_112" x="750" y="150" width="50" height="50" fill="#F8F8F8" stroke="#EBEBEB"/>
</g>
</g>
<g id="Background/Pattern_8" clip-path="url(#clip9_1_6677)">
<g id="Light_8">
<rect id="Rectangle_113" x="50" y="200" width="50" height="50" fill="#FEFEFE" stroke="#EBEBEB"/>
<rect id="Rectangle_114" y="250" width="50" height="50" fill="#FEFEFE" stroke="#EBEBEB"/>
<rect id="Rectangle_115" x="150" y="200" width="50" height="50" fill="#FEFEFE" stroke="#EBEBEB"/>
<rect id="Rectangle_116" x="100" y="250" width="50" height="50" fill="#FEFEFE" stroke="#EBEBEB"/>
<rect id="Rectangle_117" x="50" y="300" width="50" height="50" fill="#FEFEFE" stroke="#EBEBEB"/>
<rect id="Rectangle_118" y="350" width="50" height="50" fill="#FEFEFE" stroke="#EBEBEB"/>
<rect id="Rectangle_119" x="150" y="300" width="50" height="50" fill="#FEFEFE" stroke="#EBEBEB"/>
<rect id="Rectangle_120" x="100" y="350" width="50" height="50" fill="#FEFEFE" stroke="#EBEBEB"/>
</g>
<g id="Dark_8">
<rect id="Rectangle_121" y="200" width="50" height="50" fill="#F8F8F8" stroke="#EBEBEB"/>
<rect id="Rectangle_122" x="50" y="250" width="50" height="50" fill="#F8F8F8" stroke="#EBEBEB"/>
<rect id="Rectangle_123" x="100" y="200" width="50" height="50" fill="#F8F8F8" stroke="#EBEBEB"/>
<rect id="Rectangle_124" x="150" y="250" width="50" height="50" fill="#F8F8F8" stroke="#EBEBEB"/>
<rect id="Rectangle_125" y="300" width="50" height="50" fill="#F8F8F8" stroke="#EBEBEB"/>
<rect id="Rectangle_126" x="50" y="350" width="50" height="50" fill="#F8F8F8" stroke="#EBEBEB"/>
<rect id="Rectangle_127" x="100" y="300" width="50" height="50" fill="#F8F8F8" stroke="#EBEBEB"/>
<rect id="Rectangle_128" x="150" y="350" width="50" height="50" fill="#F8F8F8" stroke="#EBEBEB"/>
</g>
</g>
<g id="Background/Pattern_9" clip-path="url(#clip10_1_6677)">
<g id="Light_9">
<rect id="Rectangle_129" x="250" y="200" width="50" height="50" fill="#FEFEFE" stroke="#EBEBEB"/>
<rect id="Rectangle_130" x="200" y="250" width="50" height="50" fill="#FEFEFE" stroke="#EBEBEB"/>
<rect id="Rectangle_131" x="350" y="200" width="50" height="50" fill="#FEFEFE" stroke="#EBEBEB"/>
<rect id="Rectangle_132" x="300" y="250" width="50" height="50" fill="#FEFEFE" stroke="#EBEBEB"/>
<rect id="Rectangle_133" x="250" y="300" width="50" height="50" fill="#FEFEFE" stroke="#EBEBEB"/>
<rect id="Rectangle_134" x="200" y="350" width="50" height="50" fill="#FEFEFE" stroke="#EBEBEB"/>
<rect id="Rectangle_135" x="350" y="300" width="50" height="50" fill="#FEFEFE" stroke="#EBEBEB"/>
<rect id="Rectangle_136" x="300" y="350" width="50" height="50" fill="#FEFEFE" stroke="#EBEBEB"/>
</g>
<g id="Dark_9">
<rect id="Rectangle_137" x="200" y="200" width="50" height="50" fill="#F8F8F8" stroke="#EBEBEB"/>
<rect id="Rectangle_138" x="250" y="250" width="50" height="50" fill="#F8F8F8" stroke="#EBEBEB"/>
<rect id="Rectangle_139" x="300" y="200" width="50" height="50" fill="#F8F8F8" stroke="#EBEBEB"/>
<rect id="Rectangle_140" x="350" y="250" width="50" height="50" fill="#F8F8F8" stroke="#EBEBEB"/>
<rect id="Rectangle_141" x="200" y="300" width="50" height="50" fill="#F8F8F8" stroke="#EBEBEB"/>
<rect id="Rectangle_142" x="250" y="350" width="50" height="50" fill="#F8F8F8" stroke="#EBEBEB"/>
<rect id="Rectangle_143" x="300" y="300" width="50" height="50" fill="#F8F8F8" stroke="#EBEBEB"/>
<rect id="Rectangle_144" x="350" y="350" width="50" height="50" fill="#F8F8F8" stroke="#EBEBEB"/>
</g>
</g>
<g id="Background/Pattern_10" clip-path="url(#clip11_1_6677)">
<g id="Light_10">
<rect id="Rectangle_145" x="450" y="200" width="50" height="50" fill="#FEFEFE" stroke="#EBEBEB"/>
<rect id="Rectangle_146" x="400" y="250" width="50" height="50" fill="#FEFEFE" stroke="#EBEBEB"/>
<rect id="Rectangle_147" x="550" y="200" width="50" height="50" fill="#FEFEFE" stroke="#EBEBEB"/>
<rect id="Rectangle_148" x="500" y="250" width="50" height="50" fill="#FEFEFE" stroke="#EBEBEB"/>
<rect id="Rectangle_149" x="450" y="300" width="50" height="50" fill="#FEFEFE" stroke="#EBEBEB"/>
<rect id="Rectangle_150" x="400" y="350" width="50" height="50" fill="#FEFEFE" stroke="#EBEBEB"/>
<rect id="Rectangle_151" x="550" y="300" width="50" height="50" fill="#FEFEFE" stroke="#EBEBEB"/>
<rect id="Rectangle_152" x="500" y="350" width="50" height="50" fill="#FEFEFE" stroke="#EBEBEB"/>
</g>
<g id="Dark_10">
<rect id="Rectangle_153" x="400" y="200" width="50" height="50" fill="#F8F8F8" stroke="#EBEBEB"/>
<rect id="Rectangle_154" x="450" y="250" width="50" height="50" fill="#F8F8F8" stroke="#EBEBEB"/>
<rect id="Rectangle_155" x="500" y="200" width="50" height="50" fill="#F8F8F8" stroke="#EBEBEB"/>
<rect id="Rectangle_156" x="550" y="250" width="50" height="50" fill="#F8F8F8" stroke="#EBEBEB"/>
<rect id="Rectangle_157" x="400" y="300" width="50" height="50" fill="#F8F8F8" stroke="#EBEBEB"/>
<rect id="Rectangle_158" x="450" y="350" width="50" height="50" fill="#F8F8F8" stroke="#EBEBEB"/>
<rect id="Rectangle_159" x="500" y="300" width="50" height="50" fill="#F8F8F8" stroke="#EBEBEB"/>
<rect id="Rectangle_160" x="550" y="350" width="50" height="50" fill="#F8F8F8" stroke="#EBEBEB"/>
</g>
</g>
<g id="Background/Pattern_11" clip-path="url(#clip12_1_6677)">
<g id="Light_11">
<rect id="Rectangle_161" x="650" y="200" width="50" height="50" fill="#FEFEFE" stroke="#EBEBEB"/>
<rect id="Rectangle_162" x="600" y="250" width="50" height="50" fill="#FEFEFE" stroke="#EBEBEB"/>
<rect id="Rectangle_163" x="750" y="200" width="50" height="50" fill="#FEFEFE" stroke="#EBEBEB"/>
<rect id="Rectangle_164" x="700" y="250" width="50" height="50" fill="#FEFEFE" stroke="#EBEBEB"/>
<rect id="Rectangle_165" x="650" y="300" width="50" height="50" fill="#FEFEFE" stroke="#EBEBEB"/>
<rect id="Rectangle_166" x="600" y="350" width="50" height="50" fill="#FEFEFE" stroke="#EBEBEB"/>
<rect id="Rectangle_167" x="750" y="300" width="50" height="50" fill="#FEFEFE" stroke="#EBEBEB"/>
<rect id="Rectangle_168" x="700" y="350" width="50" height="50" fill="#FEFEFE" stroke="#EBEBEB"/>
</g>
<g id="Dark_11">
<rect id="Rectangle_169" x="600" y="200" width="50" height="50" fill="#F8F8F8" stroke="#EBEBEB"/>
<rect id="Rectangle_170" x="650" y="250" width="50" height="50" fill="#F8F8F8" stroke="#EBEBEB"/>
<rect id="Rectangle_171" x="700" y="200" width="50" height="50" fill="#F8F8F8" stroke="#EBEBEB"/>
<rect id="Rectangle_172" x="750" y="250" width="50" height="50" fill="#F8F8F8" stroke="#EBEBEB"/>
<rect id="Rectangle_173" x="600" y="300" width="50" height="50" fill="#F8F8F8" stroke="#EBEBEB"/>
<rect id="Rectangle_174" x="650" y="350" width="50" height="50" fill="#F8F8F8" stroke="#EBEBEB"/>
<rect id="Rectangle_175" x="700" y="300" width="50" height="50" fill="#F8F8F8" stroke="#EBEBEB"/>
<rect id="Rectangle_176" x="750" y="350" width="50" height="50" fill="#F8F8F8" stroke="#EBEBEB"/>
</g>
</g>
<g id="Background/Pattern_12" clip-path="url(#clip13_1_6677)">
<g id="Light_12">
<rect id="Rectangle_177" x="50" y="200" width="50" height="50" fill="#FEFEFE" stroke="#EBEBEB"/>
<rect id="Rectangle_178" y="250" width="50" height="50" fill="#FEFEFE" stroke="#EBEBEB"/>
<rect id="Rectangle_179" x="150" y="200" width="50" height="50" fill="#FEFEFE" stroke="#EBEBEB"/>
<rect id="Rectangle_180" x="100" y="250" width="50" height="50" fill="#FEFEFE" stroke="#EBEBEB"/>
<rect id="Rectangle_181" x="50" y="300" width="50" height="50" fill="#FEFEFE" stroke="#EBEBEB"/>
<rect id="Rectangle_182" y="350" width="50" height="50" fill="#FEFEFE" stroke="#EBEBEB"/>
<rect id="Rectangle_183" x="150" y="300" width="50" height="50" fill="#FEFEFE" stroke="#EBEBEB"/>
<rect id="Rectangle_184" x="100" y="350" width="50" height="50" fill="#FEFEFE" stroke="#EBEBEB"/>
</g>
<g id="Dark_12">
<rect id="Rectangle_185" y="200" width="50" height="50" fill="#F8F8F8" stroke="#EBEBEB"/>
<rect id="Rectangle_186" x="50" y="250" width="50" height="50" fill="#F8F8F8" stroke="#EBEBEB"/>
<rect id="Rectangle_187" x="100" y="200" width="50" height="50" fill="#F8F8F8" stroke="#EBEBEB"/>
<rect id="Rectangle_188" x="150" y="250" width="50" height="50" fill="#F8F8F8" stroke="#EBEBEB"/>
<rect id="Rectangle_189" y="300" width="50" height="50" fill="#F8F8F8" stroke="#EBEBEB"/>
<rect id="Rectangle_190" x="50" y="350" width="50" height="50" fill="#F8F8F8" stroke="#EBEBEB"/>
<rect id="Rectangle_191" x="100" y="300" width="50" height="50" fill="#F8F8F8" stroke="#EBEBEB"/>
<rect id="Rectangle_192" x="150" y="350" width="50" height="50" fill="#F8F8F8" stroke="#EBEBEB"/>
</g>
</g>
<g id="Background/Pattern_13" clip-path="url(#clip14_1_6677)">
<g id="Light_13">
<rect id="Rectangle_193" x="250" y="200" width="50" height="50" fill="#FEFEFE" stroke="#EBEBEB"/>
<rect id="Rectangle_194" x="200" y="250" width="50" height="50" fill="#FEFEFE" stroke="#EBEBEB"/>
<rect id="Rectangle_195" x="350" y="200" width="50" height="50" fill="#FEFEFE" stroke="#EBEBEB"/>
<rect id="Rectangle_196" x="300" y="250" width="50" height="50" fill="#FEFEFE" stroke="#EBEBEB"/>
<rect id="Rectangle_197" x="250" y="300" width="50" height="50" fill="#FEFEFE" stroke="#EBEBEB"/>
<rect id="Rectangle_198" x="200" y="350" width="50" height="50" fill="#FEFEFE" stroke="#EBEBEB"/>
<rect id="Rectangle_199" x="350" y="300" width="50" height="50" fill="#FEFEFE" stroke="#EBEBEB"/>
<rect id="Rectangle_200" x="300" y="350" width="50" height="50" fill="#FEFEFE" stroke="#EBEBEB"/>
</g>
<g id="Dark_13">
<rect id="Rectangle_201" x="200" y="200" width="50" height="50" fill="#F8F8F8" stroke="#EBEBEB"/>
<rect id="Rectangle_202" x="250" y="250" width="50" height="50" fill="#F8F8F8" stroke="#EBEBEB"/>
<rect id="Rectangle_203" x="300" y="200" width="50" height="50" fill="#F8F8F8" stroke="#EBEBEB"/>
<rect id="Rectangle_204" x="350" y="250" width="50" height="50" fill="#F8F8F8" stroke="#EBEBEB"/>
<rect id="Rectangle_205" x="200" y="300" width="50" height="50" fill="#F8F8F8" stroke="#EBEBEB"/>
<rect id="Rectangle_206" x="250" y="350" width="50" height="50" fill="#F8F8F8" stroke="#EBEBEB"/>
<rect id="Rectangle_207" x="300" y="300" width="50" height="50" fill="#F8F8F8" stroke="#EBEBEB"/>
<rect id="Rectangle_208" x="350" y="350" width="50" height="50" fill="#F8F8F8" stroke="#EBEBEB"/>
</g>
</g>
<g id="Background/Pattern_14" clip-path="url(#clip15_1_6677)">
<g id="Light_14">
<rect id="Rectangle_209" x="450" y="200" width="50" height="50" fill="#FEFEFE" stroke="#EBEBEB"/>
<rect id="Rectangle_210" x="400" y="250" width="50" height="50" fill="#FEFEFE" stroke="#EBEBEB"/>
<rect id="Rectangle_211" x="550" y="200" width="50" height="50" fill="#FEFEFE" stroke="#EBEBEB"/>
<rect id="Rectangle_212" x="500" y="250" width="50" height="50" fill="#FEFEFE" stroke="#EBEBEB"/>
<rect id="Rectangle_213" x="450" y="300" width="50" height="50" fill="#FEFEFE" stroke="#EBEBEB"/>
<rect id="Rectangle_214" x="400" y="350" width="50" height="50" fill="#FEFEFE" stroke="#EBEBEB"/>
<rect id="Rectangle_215" x="550" y="300" width="50" height="50" fill="#FEFEFE" stroke="#EBEBEB"/>
<rect id="Rectangle_216" x="500" y="350" width="50" height="50" fill="#FEFEFE" stroke="#EBEBEB"/>
</g>
<g id="Dark_14">
<rect id="Rectangle_217" x="400" y="200" width="50" height="50" fill="#F8F8F8" stroke="#EBEBEB"/>
<rect id="Rectangle_218" x="450" y="250" width="50" height="50" fill="#F8F8F8" stroke="#EBEBEB"/>
<rect id="Rectangle_219" x="500" y="200" width="50" height="50" fill="#F8F8F8" stroke="#EBEBEB"/>
<rect id="Rectangle_220" x="550" y="250" width="50" height="50" fill="#F8F8F8" stroke="#EBEBEB"/>
<rect id="Rectangle_221" x="400" y="300" width="50" height="50" fill="#F8F8F8" stroke="#EBEBEB"/>
<rect id="Rectangle_222" x="450" y="350" width="50" height="50" fill="#F8F8F8" stroke="#EBEBEB"/>
<rect id="Rectangle_223" x="500" y="300" width="50" height="50" fill="#F8F8F8" stroke="#EBEBEB"/>
<rect id="Rectangle_224" x="550" y="350" width="50" height="50" fill="#F8F8F8" stroke="#EBEBEB"/>
</g>
</g>
<g id="Background/Pattern_15" clip-path="url(#clip16_1_6677)">
<g id="Light_15">
<rect id="Rectangle_225" x="650" y="200" width="50" height="50" fill="#FEFEFE" stroke="#EBEBEB"/>
<rect id="Rectangle_226" x="600" y="250" width="50" height="50" fill="#FEFEFE" stroke="#EBEBEB"/>
<rect id="Rectangle_227" x="750" y="200" width="50" height="50" fill="#FEFEFE" stroke="#EBEBEB"/>
<rect id="Rectangle_228" x="700" y="250" width="50" height="50" fill="#FEFEFE" stroke="#EBEBEB"/>
<rect id="Rectangle_229" x="650" y="300" width="50" height="50" fill="#FEFEFE" stroke="#EBEBEB"/>
<rect id="Rectangle_230" x="600" y="350" width="50" height="50" fill="#FEFEFE" stroke="#EBEBEB"/>
<rect id="Rectangle_231" x="750" y="300" width="50" height="50" fill="#FEFEFE" stroke="#EBEBEB"/>
<rect id="Rectangle_232" x="700" y="350" width="50" height="50" fill="#FEFEFE" stroke="#EBEBEB"/>
</g>
<g id="Dark_15">
<rect id="Rectangle_233" x="600" y="200" width="50" height="50" fill="#F8F8F8" stroke="#EBEBEB"/>
<rect id="Rectangle_234" x="650" y="250" width="50" height="50" fill="#F8F8F8" stroke="#EBEBEB"/>
<rect id="Rectangle_235" x="700" y="200" width="50" height="50" fill="#F8F8F8" stroke="#EBEBEB"/>
<rect id="Rectangle_236" x="750" y="250" width="50" height="50" fill="#F8F8F8" stroke="#EBEBEB"/>
<rect id="Rectangle_237" x="600" y="300" width="50" height="50" fill="#F8F8F8" stroke="#EBEBEB"/>
<rect id="Rectangle_238" x="650" y="350" width="50" height="50" fill="#F8F8F8" stroke="#EBEBEB"/>
<rect id="Rectangle_239" x="700" y="300" width="50" height="50" fill="#F8F8F8" stroke="#EBEBEB"/>
<rect id="Rectangle_240" x="750" y="350" width="50" height="50" fill="#F8F8F8" stroke="#EBEBEB"/>
</g>
</g>
<g id="Background/Pattern_16" clip-path="url(#clip17_1_6677)">
<g id="Light_16">
<rect id="Rectangle_241" x="50" width="50" height="50" fill="#FEFEFE" stroke="#EBEBEB"/>
<rect id="Rectangle_242" y="50" width="50" height="50" fill="#FEFEFE" stroke="#EBEBEB"/>
<rect id="Rectangle_243" x="150" width="50" height="50" fill="#FEFEFE" stroke="#EBEBEB"/>
<rect id="Rectangle_244" x="100" y="50" width="50" height="50" fill="#FEFEFE" stroke="#EBEBEB"/>
<rect id="Rectangle_245" x="50" y="100" width="50" height="50" fill="#FEFEFE" stroke="#EBEBEB"/>
<rect id="Rectangle_246" y="150" width="50" height="50" fill="#FEFEFE" stroke="#EBEBEB"/>
<rect id="Rectangle_247" x="150" y="100" width="50" height="50" fill="#FEFEFE" stroke="#EBEBEB"/>
<rect id="Rectangle_248" x="100" y="150" width="50" height="50" fill="#FEFEFE" stroke="#EBEBEB"/>
</g>
<g id="Dark_16">
<rect id="Rectangle_249" width="50" height="50" fill="#F8F8F8" stroke="#EBEBEB"/>
<rect id="Rectangle_250" x="50" y="50" width="50" height="50" fill="#F8F8F8" stroke="#EBEBEB"/>
<rect id="Rectangle_251" x="100" width="50" height="50" fill="#F8F8F8" stroke="#EBEBEB"/>
<rect id="Rectangle_252" x="150" y="50" width="50" height="50" fill="#F8F8F8" stroke="#EBEBEB"/>
<rect id="Rectangle_253" y="100" width="50" height="50" fill="#F8F8F8" stroke="#EBEBEB"/>
<rect id="Rectangle_254" x="50" y="150" width="50" height="50" fill="#F8F8F8" stroke="#EBEBEB"/>
<rect id="Rectangle_255" x="100" y="100" width="50" height="50" fill="#F8F8F8" stroke="#EBEBEB"/>
<rect id="Rectangle_256" x="150" y="150" width="50" height="50" fill="#F8F8F8" stroke="#EBEBEB"/>
</g>
</g>
</g>
<g id="Counter">
<text id="000 456" fill="#212121" xml:space="preserve" style="white-space: pre" font-family="Homenaje" font-size="32" letter-spacing="0px"><tspan x="55" y="61.508">000 456</tspan></text>
</g>
<g id="Props/Block" clip-path="url(#clip18_1_6677)">
<rect id="Rectangle_257" x="304.5" y="145.5" width="42" height="42" rx="9.5" transform="rotate(-90 304.5 145.5)" fill="#50E3C2" stroke="#3CCFAE"/>
</g>
<g id="Props/Block_2" clip-path="url(#clip19_1_6677)">
<rect id="Rectangle_258" x="354.5" y="195.5" width="42" height="42" rx="9.5" transform="rotate(-90 354.5 195.5)" fill="#50E3C2" stroke="#3CCFAE"/>
</g>
<g id="Props/Block_3" clip-path="url(#clip20_1_6677)">
<rect id="Rectangle_259" x="254.5" y="195.5" width="42" height="42" rx="9.5" transform="rotate(-90 254.5 195.5)" fill="#50E3C2" stroke="#3CCFAE"/>
</g>
<g id="Props/Block_4" clip-path="url(#clip21_1_6677)">
<rect id="Rectangle_260" x="457.5" y="194.5" width="42" height="42" rx="9.5" transform="rotate(-90 457.5 194.5)" fill="#50E3C2" stroke="#3CCFAE"/>
</g>
<g id="Props/Block_5" clip-path="url(#clip22_1_6677)">
<rect id="Rectangle_261" x="554.5" y="194.5" width="42" height="42" rx="9.5" transform="rotate(-90 554.5 194.5)" fill="#50E3C2" stroke="#3CCFAE"/>
</g>
<g id="Props/Block_6" clip-path="url(#clip23_1_6677)">
<rect id="Rectangle_262" x="404.5" y="145.5" width="42" height="42" rx="9.5" transform="rotate(-90 404.5 145.5)" fill="#50E3C2" stroke="#3CCFAE"/>
</g>
<g id="Props/Block_7" clip-path="url(#clip24_1_6677)">
<rect id="Rectangle_263" x="504.5" y="145.5" width="42" height="42" rx="9.5" transform="rotate(-90 504.5 145.5)" fill="#50E3C2" stroke="#3CCFAE"/>
</g>
<g id="Props/Trace/Wide">
<rect id="Rectangle_264" x="50" y="560" width="20" height="700" rx="10" transform="rotate(-90 50 560)" fill="#212121" fill-opacity="0.1"/>
</g>
<g id="Props/Trace/Paddle">
<rect id="Rectangle_265" x="515" y="560" width="20" height="150" rx="10" transform="rotate(-90 515 560)" fill="#212121"/>
</g>
<g id="Props/Spike">
<path id="Vector" d="M175.397 235.799L166.293 255.598L175.397 275.397L155.598 266.293L135.799 275.397L144.903 255.598L135.799 235.799L155.598 244.903L175.397 235.799Z" fill="#212121"/>
</g>
<g id="Props/Spike_2">
<path id="Vector_2" d="M677.397 185.799L668.293 205.598L677.397 225.397L657.598 216.293L637.799 225.397L646.903 205.598L637.799 185.799L657.598 194.903L677.397 185.799Z" fill="#212121"/>
</g>
<g id="Props/Ball/A">
<g id="Oval" filter="url(#filter0_d_1_6677)">
<circle cx="537" cy="400" r="10" fill="#50E3C2"/>
<circle cx="537" cy="400" r="9.5" stroke="#3CCFAE"/>
</g>
</g>
</g>
<defs>
<filter id="filter0_d_1_6677" x="523" y="388" width="28" height="28" filterUnits="userSpaceOnUse" color-interpolation-filters="sRGB">
<feFlood flood-opacity="0" result="BackgroundImageFix"/>
<feColorMatrix in="SourceAlpha" type="matrix" values="0 0 0 0 0 0 0 0 0 0 0 0 0 0 0 0 0 0 127 0" result="hardAlpha"/>
<feOffset dy="2"/>
<feGaussianBlur stdDeviation="2"/>
<feColorMatrix type="matrix" values="0 0 0 0 0 0 0 0 0 0 0 0 0 0 0 0 0 0 0.1 0"/>
<feBlend mode="normal" in2="BackgroundImageFix" result="effect1_dropShadow_1_6677"/>
<feBlend mode="normal" in="SourceGraphic" in2="effect1_dropShadow_1_6677" result="shape"/>
</filter>
<clipPath id="clip0_1_6677">
<rect width="800" height="600" fill="white"/>
</clipPath>
<clipPath id="clip1_1_6677">
<rect width="800" height="600" fill="white"/>
</clipPath>
<clipPath id="clip2_1_6677">
<rect width="200" height="200" fill="white" transform="translate(0 400)"/>
</clipPath>
<clipPath id="clip3_1_6677">
<rect width="200" height="200" fill="white" transform="translate(200 400)"/>
</clipPath>
<clipPath id="clip4_1_6677">
<rect width="200" height="200" fill="white" transform="translate(400 400)"/>
</clipPath>
<clipPath id="clip5_1_6677">
<rect width="200" height="200" fill="white" transform="translate(600 400)"/>
</clipPath>
<clipPath id="clip6_1_6677">
<rect width="200" height="200" fill="white" transform="translate(200)"/>
</clipPath>
<clipPath id="clip7_1_6677">
<rect width="200" height="200" fill="white" transform="translate(400)"/>
</clipPath>
<clipPath id="clip8_1_6677">
<rect width="200" height="200" fill="white" transform="translate(600)"/>
</clipPath>
<clipPath id="clip9_1_6677">
<rect width="200" height="200" fill="white" transform="translate(0 200)"/>
</clipPath>
<clipPath id="clip10_1_6677">
<rect width="200" height="200" fill="white" transform="translate(200 200)"/>
</clipPath>
<clipPath id="clip11_1_6677">
<rect width="200" height="200" fill="white" transform="translate(400 200)"/>
</clipPath>
<clipPath id="clip12_1_6677">
<rect width="200" height="200" fill="white" transform="translate(600 200)"/>
</clipPath>
<clipPath id="clip13_1_6677">
<rect width="200" height="200" fill="white" transform="translate(0 200)"/>
</clipPath>
<clipPath id="clip14_1_6677">
<rect width="200" height="200" fill="white" transform="translate(200 200)"/>
</clipPath>
<clipPath id="clip15_1_6677">
<rect width="200" height="200" fill="white" transform="translate(400 200)"/>
</clipPath>
<clipPath id="clip16_1_6677">
<rect width="200" height="200" fill="white" transform="translate(600 200)"/>
</clipPath>
<clipPath id="clip17_1_6677">
<rect width="200" height="200" fill="white"/>
</clipPath>
<clipPath id="clip18_1_6677">
<rect width="43" height="43" fill="white" transform="translate(304 103)"/>
</clipPath>
<clipPath id="clip19_1_6677">
<rect width="43" height="43" fill="white" transform="translate(354 153)"/>
</clipPath>
<clipPath id="clip20_1_6677">
<rect width="43" height="43" fill="white" transform="translate(254 153)"/>
</clipPath>
<clipPath id="clip21_1_6677">
<rect width="43" height="43" fill="white" transform="translate(457 152)"/>
</clipPath>
<clipPath id="clip22_1_6677">
<rect width="43" height="43" fill="white" transform="translate(554 152)"/>
</clipPath>
<clipPath id="clip23_1_6677">
<rect width="43" height="43" fill="white" transform="translate(404 103)"/>
</clipPath>
<clipPath id="clip24_1_6677">
<rect width="43" height="43" fill="white" transform="translate(504 103)"/>
</clipPath>
</defs>
</svg>
