<svg width="800" height="600" viewBox="0 0 800 600" fill="none" xmlns="http://www.w3.org/2000/svg">
<g id="Scene/GameD" clip-path="url(#clip0_1_6607)">
<rect width="800" height="600" fill="white"/>
<g id="Background/Screen" clip-path="url(#clip1_1_6607)">
<g id="Background/Pattern" clip-path="url(#clip2_1_6607)">
<g id="Light">
<rect id="Rectangle" x="50" y="400" width="50" height="50" fill="#FEFEFE" stroke="#EBEBEB"/>
<rect id="Rectangle_2" y="450" width="50" height="50" fill="#FEFEFE" stroke="#EBEBEB"/>
<rect id="Rectangle_3" x="150" y="400" width="50" height="50" fill="#FEFEFE" stroke="#EBEBEB"/>
<rect id="Rectangle_4" x="100" y="450" width="50" height="50" fill="#FEFEFE" stroke="#EBEBEB"/>
<rect id="Rectangle_5" x="50" y="500" width="50" height="50" fill="#FEFEFE" stroke="#EBEBEB"/>
<rect id="Rectangle_6" y="550" width="50" height="50" fill="#FEFEFE" stroke="#EBEBEB"/>
<rect id="Rectangle_7" x="150" y="500" width="50" height="50" fill="#FEFEFE" stroke="#EBEBEB"/>
<rect id="Rectangle_8" x="100" y="550" width="50" height="50" fill="#FEFEFE" stroke="#EBEBEB"/>
</g>
<g id="Dark">
<rect id="Rectangle_9" y="400" width="50" height="50" fill="#F8F8F8" stroke="#EBEBEB"/>
<rect id="Rectangle_10" x="50" y="450" width="50" height="50" fill="#F8F8F8" stroke="#EBEBEB"/>
<rect id="Rectangle_11" x="100" y="400" width="50" height="50" fill="#F8F8F8" stroke="#EBEBEB"/>
<rect id="Rectangle_12" x="150" y="450" width="50" height="50" fill="#F8F8F8" stroke="#EBEBEB"/>
<rect id="Rectangle_13" y="500" width="50" height="50" fill="#F8F8F8" stroke="#EBEBEB"/>
<rect id="Rectangle_14" x="50" y="550" width="50" height="50" fill="#F8F8F8" stroke="#EBEBEB"/>
<rect id="Rectangle_15" x="100" y="500" width="50" height="50" fill="#F8F8F8" stroke="#EBEBEB"/>
<rect id="Rectangle_16" x="150" y="550" width="50" height="50" fill="#F8F8F8" stroke="#EBEBEB"/>
</g>
</g>
<g id="Background/Pattern_2" clip-path="url(#clip3_1_6607)">
<g id="Light_2">
<rect id="Rectangle_17" x="250" y="400" width="50" height="50" fill="#FEFEFE" stroke="#EBEBEB"/>
<rect id="Rectangle_18" x="200" y="450" width="50" height="50" fill="#FEFEFE" stroke="#EBEBEB"/>
<rect id="Rectangle_19" x="350" y="400" width="50" height="50" fill="#FEFEFE" stroke="#EBEBEB"/>
<rect id="Rectangle_20" x="300" y="450" width="50" height="50" fill="#FEFEFE" stroke="#EBEBEB"/>
<rect id="Rectangle_21" x="250" y="500" width="50" height="50" fill="#FEFEFE" stroke="#EBEBEB"/>
<rect id="Rectangle_22" x="200" y="550" width="50" height="50" fill="#FEFEFE" stroke="#EBEBEB"/>
<rect id="Rectangle_23" x="350" y="500" width="50" height="50" fill="#FEFEFE" stroke="#EBEBEB"/>
<rect id="Rectangle_24" x="300" y="550" width="50" height="50" fill="#FEFEFE" stroke="#EBEBEB"/>
</g>
<g id="Dark_2">
<rect id="Rectangle_25" x="200" y="400" width="50" height="50" fill="#F8F8F8" stroke="#EBEBEB"/>
<rect id="Rectangle_26" x="250" y="450" width="50" height="50" fill="#F8F8F8" stroke="#EBEBEB"/>
<rect id="Rectangle_27" x="300" y="400" width="50" height="50" fill="#F8F8F8" stroke="#EBEBEB"/>
<rect id="Rectangle_28" x="350" y="450" width="50" height="50" fill="#F8F8F8" stroke="#EBEBEB"/>
<rect id="Rectangle_29" x="200" y="500" width="50" height="50" fill="#F8F8F8" stroke="#EBEBEB"/>
<rect id="Rectangle_30" x="250" y="550" width="50" height="50" fill="#F8F8F8" stroke="#EBEBEB"/>
<rect id="Rectangle_31" x="300" y="500" width="50" height="50" fill="#F8F8F8" stroke="#EBEBEB"/>
<rect id="Rectangle_32" x="350" y="550" width="50" height="50" fill="#F8F8F8" stroke="#EBEBEB"/>
</g>
</g>
<g id="Background/Pattern_3" clip-path="url(#clip4_1_6607)">
<g id="Light_3">
<rect id="Rectangle_33" x="450" y="400" width="50" height="50" fill="#FEFEFE" stroke="#EBEBEB"/>
<rect id="Rectangle_34" x="400" y="450" width="50" height="50" fill="#FEFEFE" stroke="#EBEBEB"/>
<rect id="Rectangle_35" x="550" y="400" width="50" height="50" fill="#FEFEFE" stroke="#EBEBEB"/>
<rect id="Rectangle_36" x="500" y="450" width="50" height="50" fill="#FEFEFE" stroke="#EBEBEB"/>
<rect id="Rectangle_37" x="450" y="500" width="50" height="50" fill="#FEFEFE" stroke="#EBEBEB"/>
<rect id="Rectangle_38" x="400" y="550" width="50" height="50" fill="#FEFEFE" stroke="#EBEBEB"/>
<rect id="Rectangle_39" x="550" y="500" width="50" height="50" fill="#FEFEFE" stroke="#EBEBEB"/>
<rect id="Rectangle_40" x="500" y="550" width="50" height="50" fill="#FEFEFE" stroke="#EBEBEB"/>
</g>
<g id="Dark_3">
<rect id="Rectangle_41" x="400" y="400" width="50" height="50" fill="#F8F8F8" stroke="#EBEBEB"/>
<rect id="Rectangle_42" x="450" y="450" width="50" height="50" fill="#F8F8F8" stroke="#EBEBEB"/>
<rect id="Rectangle_43" x="500" y="400" width="50" height="50" fill="#F8F8F8" stroke="#EBEBEB"/>
<rect id="Rectangle_44" x="550" y="450" width="50" height="50" fill="#F8F8F8" stroke="#EBEBEB"/>
<rect id="Rectangle_45" x="400" y="500" width="50" height="50" fill="#F8F8F8" stroke="#EBEBEB"/>
<rect id="Rectangle_46" x="450" y="550" width="50" height="50" fill="#F8F8F8" stroke="#EBEBEB"/>
<rect id="Rectangle_47" x="500" y="500" width="50" height="50" fill="#F8F8F8" stroke="#EBEBEB"/>
<rect id="Rectangle_48" x="550" y="550" width="50" height="50" fill="#F8F8F8" stroke="#EBEBEB"/>
</g>
</g>
<g id="Background/Pattern_4" clip-path="url(#clip5_1_6607)">
<g id="Light_4">
<rect id="Rectangle_49" x="650" y="400" width="50" height="50" fill="#FEFEFE" stroke="#EBEBEB"/>
<rect id="Rectangle_50" x="600" y="450" width="50" height="50" fill="#FEFEFE" stroke="#EBEBEB"/>
<rect id="Rectangle_51" x="750" y="400" width="50" height="50" fill="#FEFEFE" stroke="#EBEBEB"/>
<rect id="Rectangle_52" x="700" y="450" width="50" height="50" fill="#FEFEFE" stroke="#EBEBEB"/>
<rect id="Rectangle_53" x="650" y="500" width="50" height="50" fill="#FEFEFE" stroke="#EBEBEB"/>
<rect id="Rectangle_54" x="600" y="550" width="50" height="50" fill="#FEFEFE" stroke="#EBEBEB"/>
<rect id="Rectangle_55" x="750" y="500" width="50" height="50" fill="#FEFEFE" stroke="#EBEBEB"/>
<rect id="Rectangle_56" x="700" y="550" width="50" height="50" fill="#FEFEFE" stroke="#EBEBEB"/>
</g>
<g id="Dark_4">
<rect id="Rectangle_57" x="600" y="400" width="50" height="50" fill="#F8F8F8" stroke="#EBEBEB"/>
<rect id="Rectangle_58" x="650" y="450" width="50" height="50" fill="#F8F8F8" stroke="#EBEBEB"/>
<rect id="Rectangle_59" x="700" y="400" width="50" height="50" fill="#F8F8F8" stroke="#EBEBEB"/>
<rect id="Rectangle_60" x="750" y="450" width="50" height="50" fill="#F8F8F8" stroke="#EBEBEB"/>
<rect id="Rectangle_61" x="600" y="500" width="50" height="50" fill="#F8F8F8" stroke="#EBEBEB"/>
<rect id="Rectangle_62" x="650" y="550" width="50" height="50" fill="#F8F8F8" stroke="#EBEBEB"/>
<rect id="Rectangle_63" x="700" y="500" width="50" height="50" fill="#F8F8F8" stroke="#EBEBEB"/>
<rect id="Rectangle_64" x="750" y="550" width="50" height="50" fill="#F8F8F8" stroke="#EBEBEB"/>
</g>
</g>
<g id="Background/Pattern_5" clip-path="url(#clip6_1_6607)">
<g id="Light_5">
<rect id="Rectangle_65" x="250" width="50" height="50" fill="#FEFEFE" stroke="#EBEBEB"/>
<rect id="Rectangle_66" x="200" y="50" width="50" height="50" fill="#FEFEFE" stroke="#EBEBEB"/>
<rect id="Rectangle_67" x="350" width="50" height="50" fill="#FEFEFE" stroke="#EBEBEB"/>
<rect id="Rectangle_68" x="300" y="50" width="50" height="50" fill="#FEFEFE" stroke="#EBEBEB"/>
<rect id="Rectangle_69" x="250" y="100" width="50" height="50" fill="#FEFEFE" stroke="#EBEBEB"/>
<rect id="Rectangle_70" x="200" y="150" width="50" height="50" fill="#FEFEFE" stroke="#EBEBEB"/>
<rect id="Rectangle_71" x="350" y="100" width="50" height="50" fill="#FEFEFE" stroke="#EBEBEB"/>
<rect id="Rectangle_72" x="300" y="150" width="50" height="50" fill="#FEFEFE" stroke="#EBEBEB"/>
</g>
<g id="Dark_5">
<rect id="Rectangle_73" x="200" width="50" height="50" fill="#F8F8F8" stroke="#EBEBEB"/>
<rect id="Rectangle_74" x="250" y="50" width="50" height="50" fill="#F8F8F8" stroke="#EBEBEB"/>
<rect id="Rectangle_75" x="300" width="50" height="50" fill="#F8F8F8" stroke="#EBEBEB"/>
<rect id="Rectangle_76" x="350" y="50" width="50" height="50" fill="#F8F8F8" stroke="#EBEBEB"/>
<rect id="Rectangle_77" x="200" y="100" width="50" height="50" fill="#F8F8F8" stroke="#EBEBEB"/>
<rect id="Rectangle_78" x="250" y="150" width="50" height="50" fill="#F8F8F8" stroke="#EBEBEB"/>
<rect id="Rectangle_79" x="300" y="100" width="50" height="50" fill="#F8F8F8" stroke="#EBEBEB"/>
<rect id="Rectangle_80" x="350" y="150" width="50" height="50" fill="#F8F8F8" stroke="#EBEBEB"/>
</g>
</g>
<g id="Background/Pattern_6" clip-path="url(#clip7_1_6607)">
<g id="Light_6">
<rect id="Rectangle_81" x="450" width="50" height="50" fill="#FEFEFE" stroke="#EBEBEB"/>
<rect id="Rectangle_82" x="400" y="50" width="50" height="50" fill="#FEFEFE" stroke="#EBEBEB"/>
<rect id="Rectangle_83" x="550" width="50" height="50" fill="#FEFEFE" stroke="#EBEBEB"/>
<rect id="Rectangle_84" x="500" y="50" width="50" height="50" fill="#FEFEFE" stroke="#EBEBEB"/>
<rect id="Rectangle_85" x="450" y="100" width="50" height="50" fill="#FEFEFE" stroke="#EBEBEB"/>
<rect id="Rectangle_86" x="400" y="150" width="50" height="50" fill="#FEFEFE" stroke="#EBEBEB"/>
<rect id="Rectangle_87" x="550" y="100" width="50" height="50" fill="#FEFEFE" stroke="#EBEBEB"/>
<rect id="Rectangle_88" x="500" y="150" width="50" height="50" fill="#FEFEFE" stroke="#EBEBEB"/>
</g>
<g id="Dark_6">
<rect id="Rectangle_89" x="400" width="50" height="50" fill="#F8F8F8" stroke="#EBEBEB"/>
<rect id="Rectangle_90" x="450" y="50" width="50" height="50" fill="#F8F8F8" stroke="#EBEBEB"/>
<rect id="Rectangle_91" x="500" width="50" height="50" fill="#F8F8F8" stroke="#EBEBEB"/>
<rect id="Rectangle_92" x="550" y="50" width="50" height="50" fill="#F8F8F8" stroke="#EBEBEB"/>
<rect id="Rectangle_93" x="400" y="100" width="50" height="50" fill="#F8F8F8" stroke="#EBEBEB"/>
<rect id="Rectangle_94" x="450" y="150" width="50" height="50" fill="#F8F8F8" stroke="#EBEBEB"/>
<rect id="Rectangle_95" x="500" y="100" width="50" height="50" fill="#F8F8F8" stroke="#EBEBEB"/>
<rect id="Rectangle_96" x="550" y="150" width="50" height="50" fill="#F8F8F8" stroke="#EBEBEB"/>
</g>
</g>
<g id="Background/Pattern_7" clip-path="url(#clip8_1_6607)">
<g id="Light_7">
<rect id="Rectangle_97" x="650" width="50" height="50" fill="#FEFEFE" stroke="#EBEBEB"/>
<rect id="Rectangle_98" x="600" y="50" width="50" height="50" fill="#FEFEFE" stroke="#EBEBEB"/>
<rect id="Rectangle_99" x="750" width="50" height="50" fill="#FEFEFE" stroke="#EBEBEB"/>
<rect id="Rectangle_100" x="700" y="50" width="50" height="50" fill="#FEFEFE" stroke="#EBEBEB"/>
<rect id="Rectangle_101" x="650" y="100" width="50" height="50" fill="#FEFEFE" stroke="#EBEBEB"/>
<rect id="Rectangle_102" x="600" y="150" width="50" height="50" fill="#FEFEFE" stroke="#EBEBEB"/>
<rect id="Rectangle_103" x="750" y="100" width="50" height="50" fill="#FEFEFE" stroke="#EBEBEB"/>
<rect id="Rectangle_104" x="700" y="150" width="50" height="50" fill="#FEFEFE" stroke="#EBEBEB"/>
</g>
<g id="Dark_7">
<rect id="Rectangle_105" x="600" width="50" height="50" fill="#F8F8F8" stroke="#EBEBEB"/>
<rect id="Rectangle_106" x="650" y="50" width="50" height="50" fill="#F8F8F8" stroke="#EBEBEB"/>
<rect id="Rectangle_107" x="700" width="50" height="50" fill="#F8F8F8" stroke="#EBEBEB"/>
<rect id="Rectangle_108" x="750" y="50" width="50" height="50" fill="#F8F8F8" stroke="#EBEBEB"/>
<rect id="Rectangle_109" x="600" y="100" width="50" height="50" fill="#F8F8F8" stroke="#EBEBEB"/>
<rect id="Rectangle_110" x="650" y="150" width="50" height="50" fill="#F8F8F8" stroke="#EBEBEB"/>
<rect id="Rectangle_111" x="700" y="100" width="50" height="50" fill="#F8F8F8" stroke="#EBEBEB"/>
<rect id="Rectangle_112" x="750" y="150" width="50" height="50" fill="#F8F8F8" stroke="#EBEBEB"/>
</g>
</g>
<g id="Background/Pattern_8" clip-path="url(#clip9_1_6607)">
<g id="Light_8">
<rect id="Rectangle_113" x="50" y="200" width="50" height="50" fill="#FEFEFE" stroke="#EBEBEB"/>
<rect id="Rectangle_114" y="250" width="50" height="50" fill="#FEFEFE" stroke="#EBEBEB"/>
<rect id="Rectangle_115" x="150" y="200" width="50" height="50" fill="#FEFEFE" stroke="#EBEBEB"/>
<rect id="Rectangle_116" x="100" y="250" width="50" height="50" fill="#FEFEFE" stroke="#EBEBEB"/>
<rect id="Rectangle_117" x="50" y="300" width="50" height="50" fill="#FEFEFE" stroke="#EBEBEB"/>
<rect id="Rectangle_118" y="350" width="50" height="50" fill="#FEFEFE" stroke="#EBEBEB"/>
<rect id="Rectangle_119" x="150" y="300" width="50" height="50" fill="#FEFEFE" stroke="#EBEBEB"/>
<rect id="Rectangle_120" x="100" y="350" width="50" height="50" fill="#FEFEFE" stroke="#EBEBEB"/>
</g>
<g id="Dark_8">
<rect id="Rectangle_121" y="200" width="50" height="50" fill="#F8F8F8" stroke="#EBEBEB"/>
<rect id="Rectangle_122" x="50" y="250" width="50" height="50" fill="#F8F8F8" stroke="#EBEBEB"/>
<rect id="Rectangle_123" x="100" y="200" width="50" height="50" fill="#F8F8F8" stroke="#EBEBEB"/>
<rect id="Rectangle_124" x="150" y="250" width="50" height="50" fill="#F8F8F8" stroke="#EBEBEB"/>
<rect id="Rectangle_125" y="300" width="50" height="50" fill="#F8F8F8" stroke="#EBEBEB"/>
<rect id="Rectangle_126" x="50" y="350" width="50" height="50" fill="#F8F8F8" stroke="#EBEBEB"/>
<rect id="Rectangle_127" x="100" y="300" width="50" height="50" fill="#F8F8F8" stroke="#EBEBEB"/>
<rect id="Rectangle_128" x="150" y="350" width="50" height="50" fill="#F8F8F8" stroke="#EBEBEB"/>
</g>
</g>
<g id="Background/Pattern_9" clip-path="url(#clip10_1_6607)">
<g id="Light_9">
<rect id="Rectangle_129" x="250" y="200" width="50" height="50" fill="#FEFEFE" stroke="#EBEBEB"/>
<rect id="Rectangle_130" x="200" y="250" width="50" height="50" fill="#FEFEFE" stroke="#EBEBEB"/>
<rect id="Rectangle_131" x="350" y="200" width="50" height="50" fill="#FEFEFE" stroke="#EBEBEB"/>
<rect id="Rectangle_132" x="300" y="250" width="50" height="50" fill="#FEFEFE" stroke="#EBEBEB"/>
<rect id="Rectangle_133" x="250" y="300" width="50" height="50" fill="#FEFEFE" stroke="#EBEBEB"/>
<rect id="Rectangle_134" x="200" y="350" width="50" height="50" fill="#FEFEFE" stroke="#EBEBEB"/>
<rect id="Rectangle_135" x="350" y="300" width="50" height="50" fill="#FEFEFE" stroke="#EBEBEB"/>
<rect id="Rectangle_136" x="300" y="350" width="50" height="50" fill="#FEFEFE" stroke="#EBEBEB"/>
</g>
<g id="Dark_9">
<rect id="Rectangle_137" x="200" y="200" width="50" height="50" fill="#F8F8F8" stroke="#EBEBEB"/>
<rect id="Rectangle_138" x="250" y="250" width="50" height="50" fill="#F8F8F8" stroke="#EBEBEB"/>
<rect id="Rectangle_139" x="300" y="200" width="50" height="50" fill="#F8F8F8" stroke="#EBEBEB"/>
<rect id="Rectangle_140" x="350" y="250" width="50" height="50" fill="#F8F8F8" stroke="#EBEBEB"/>
<rect id="Rectangle_141" x="200" y="300" width="50" height="50" fill="#F8F8F8" stroke="#EBEBEB"/>
<rect id="Rectangle_142" x="250" y="350" width="50" height="50" fill="#F8F8F8" stroke="#EBEBEB"/>
<rect id="Rectangle_143" x="300" y="300" width="50" height="50" fill="#F8F8F8" stroke="#EBEBEB"/>
<rect id="Rectangle_144" x="350" y="350" width="50" height="50" fill="#F8F8F8" stroke="#EBEBEB"/>
</g>
</g>
<g id="Background/Pattern_10" clip-path="url(#clip11_1_6607)">
<g id="Light_10">
<rect id="Rectangle_145" x="450" y="200" width="50" height="50" fill="#FEFEFE" stroke="#EBEBEB"/>
<rect id="Rectangle_146" x="400" y="250" width="50" height="50" fill="#FEFEFE" stroke="#EBEBEB"/>
<rect id="Rectangle_147" x="550" y="200" width="50" height="50" fill="#FEFEFE" stroke="#EBEBEB"/>
<rect id="Rectangle_148" x="500" y="250" width="50" height="50" fill="#FEFEFE" stroke="#EBEBEB"/>
<rect id="Rectangle_149" x="450" y="300" width="50" height="50" fill="#FEFEFE" stroke="#EBEBEB"/>
<rect id="Rectangle_150" x="400" y="350" width="50" height="50" fill="#FEFEFE" stroke="#EBEBEB"/>
<rect id="Rectangle_151" x="550" y="300" width="50" height="50" fill="#FEFEFE" stroke="#EBEBEB"/>
<rect id="Rectangle_152" x="500" y="350" width="50" height="50" fill="#FEFEFE" stroke="#EBEBEB"/>
</g>
<g id="Dark_10">
<rect id="Rectangle_153" x="400" y="200" width="50" height="50" fill="#F8F8F8" stroke="#EBEBEB"/>
<rect id="Rectangle_154" x="450" y="250" width="50" height="50" fill="#F8F8F8" stroke="#EBEBEB"/>
<rect id="Rectangle_155" x="500" y="200" width="50" height="50" fill="#F8F8F8" stroke="#EBEBEB"/>
<rect id="Rectangle_156" x="550" y="250" width="50" height="50" fill="#F8F8F8" stroke="#EBEBEB"/>
<rect id="Rectangle_157" x="400" y="300" width="50" height="50" fill="#F8F8F8" stroke="#EBEBEB"/>
<rect id="Rectangle_158" x="450" y="350" width="50" height="50" fill="#F8F8F8" stroke="#EBEBEB"/>
<rect id="Rectangle_159" x="500" y="300" width="50" height="50" fill="#F8F8F8" stroke="#EBEBEB"/>
<rect id="Rectangle_160" x="550" y="350" width="50" height="50" fill="#F8F8F8" stroke="#EBEBEB"/>
</g>
</g>
<g id="Background/Pattern_11" clip-path="url(#clip12_1_6607)">
<g id="Light_11">
<rect id="Rectangle_161" x="650" y="200" width="50" height="50" fill="#FEFEFE" stroke="#EBEBEB"/>
<rect id="Rectangle_162" x="600" y="250" width="50" height="50" fill="#FEFEFE" stroke="#EBEBEB"/>
<rect id="Rectangle_163" x="750" y="200" width="50" height="50" fill="#FEFEFE" stroke="#EBEBEB"/>
<rect id="Rectangle_164" x="700" y="250" width="50" height="50" fill="#FEFEFE" stroke="#EBEBEB"/>
<rect id="Rectangle_165" x="650" y="300" width="50" height="50" fill="#FEFEFE" stroke="#EBEBEB"/>
<rect id="Rectangle_166" x="600" y="350" width="50" height="50" fill="#FEFEFE" stroke="#EBEBEB"/>
<rect id="Rectangle_167" x="750" y="300" width="50" height="50" fill="#FEFEFE" stroke="#EBEBEB"/>
<rect id="Rectangle_168" x="700" y="350" width="50" height="50" fill="#FEFEFE" stroke="#EBEBEB"/>
</g>
<g id="Dark_11">
<rect id="Rectangle_169" x="600" y="200" width="50" height="50" fill="#F8F8F8" stroke="#EBEBEB"/>
<rect id="Rectangle_170" x="650" y="250" width="50" height="50" fill="#F8F8F8" stroke="#EBEBEB"/>
<rect id="Rectangle_171" x="700" y="200" width="50" height="50" fill="#F8F8F8" stroke="#EBEBEB"/>
<rect id="Rectangle_172" x="750" y="250" width="50" height="50" fill="#F8F8F8" stroke="#EBEBEB"/>
<rect id="Rectangle_173" x="600" y="300" width="50" height="50" fill="#F8F8F8" stroke="#EBEBEB"/>
<rect id="Rectangle_174" x="650" y="350" width="50" height="50" fill="#F8F8F8" stroke="#EBEBEB"/>
<rect id="Rectangle_175" x="700" y="300" width="50" height="50" fill="#F8F8F8" stroke="#EBEBEB"/>
<rect id="Rectangle_176" x="750" y="350" width="50" height="50" fill="#F8F8F8" stroke="#EBEBEB"/>
</g>
</g>
<g id="Background/Pattern_12" clip-path="url(#clip13_1_6607)">
<g id="Light_12">
<rect id="Rectangle_177" x="50" y="200" width="50" height="50" fill="#FEFEFE" stroke="#EBEBEB"/>
<rect id="Rectangle_178" y="250" width="50" height="50" fill="#FEFEFE" stroke="#EBEBEB"/>
<rect id="Rectangle_179" x="150" y="200" width="50" height="50" fill="#FEFEFE" stroke="#EBEBEB"/>
<rect id="Rectangle_180" x="100" y="250" width="50" height="50" fill="#FEFEFE" stroke="#EBEBEB"/>
<rect id="Rectangle_181" x="50" y="300" width="50" height="50" fill="#FEFEFE" stroke="#EBEBEB"/>
<rect id="Rectangle_182" y="350" width="50" height="50" fill="#FEFEFE" stroke="#EBEBEB"/>
<rect id="Rectangle_183" x="150" y="300" width="50" height="50" fill="#FEFEFE" stroke="#EBEBEB"/>
<rect id="Rectangle_184" x="100" y="350" width="50" height="50" fill="#FEFEFE" stroke="#EBEBEB"/>
</g>
<g id="Dark_12">
<rect id="Rectangle_185" y="200" width="50" height="50" fill="#F8F8F8" stroke="#EBEBEB"/>
<rect id="Rectangle_186" x="50" y="250" width="50" height="50" fill="#F8F8F8" stroke="#EBEBEB"/>
<rect id="Rectangle_187" x="100" y="200" width="50" height="50" fill="#F8F8F8" stroke="#EBEBEB"/>
<rect id="Rectangle_188" x="150" y="250" width="50" height="50" fill="#F8F8F8" stroke="#EBEBEB"/>
<rect id="Rectangle_189" y="300" width="50" height="50" fill="#F8F8F8" stroke="#EBEBEB"/>
<rect id="Rectangle_190" x="50" y="350" width="50" height="50" fill="#F8F8F8" stroke="#EBEBEB"/>
<rect id="Rectangle_191" x="100" y="300" width="50" height="50" fill="#F8F8F8" stroke="#EBEBEB"/>
<rect id="Rectangle_192" x="150" y="350" width="50" height="50" fill="#F8F8F8" stroke="#EBEBEB"/>
</g>
</g>
<g id="Background/Pattern_13" clip-path="url(#clip14_1_6607)">
<g id="Light_13">
<rect id="Rectangle_193" x="250" y="200" width="50" height="50" fill="#FEFEFE" stroke="#EBEBEB"/>
<rect id="Rectangle_194" x="200" y="250" width="50" height="50" fill="#FEFEFE" stroke="#EBEBEB"/>
<rect id="Rectangle_195" x="350" y="200" width="50" height="50" fill="#FEFEFE" stroke="#EBEBEB"/>
<rect id="Rectangle_196" x="300" y="250" width="50" height="50" fill="#FEFEFE" stroke="#EBEBEB"/>
<rect id="Rectangle_197" x="250" y="300" width="50" height="50" fill="#FEFEFE" stroke="#EBEBEB"/>
<rect id="Rectangle_198" x="200" y="350" width="50" height="50" fill="#FEFEFE" stroke="#EBEBEB"/>
<rect id="Rectangle_199" x="350" y="300" width="50" height="50" fill="#FEFEFE" stroke="#EBEBEB"/>
<rect id="Rectangle_200" x="300" y="350" width="50" height="50" fill="#FEFEFE" stroke="#EBEBEB"/>
</g>
<g id="Dark_13">
<rect id="Rectangle_201" x="200" y="200" width="50" height="50" fill="#F8F8F8" stroke="#EBEBEB"/>
<rect id="Rectangle_202" x="250" y="250" width="50" height="50" fill="#F8F8F8" stroke="#EBEBEB"/>
<rect id="Rectangle_203" x="300" y="200" width="50" height="50" fill="#F8F8F8" stroke="#EBEBEB"/>
<rect id="Rectangle_204" x="350" y="250" width="50" height="50" fill="#F8F8F8" stroke="#EBEBEB"/>
<rect id="Rectangle_205" x="200" y="300" width="50" height="50" fill="#F8F8F8" stroke="#EBEBEB"/>
<rect id="Rectangle_206" x="250" y="350" width="50" height="50" fill="#F8F8F8" stroke="#EBEBEB"/>
<rect id="Rectangle_207" x="300" y="300" width="50" height="50" fill="#F8F8F8" stroke="#EBEBEB"/>
<rect id="Rectangle_208" x="350" y="350" width="50" height="50" fill="#F8F8F8" stroke="#EBEBEB"/>
</g>
</g>
<g id="Background/Pattern_14" clip-path="url(#clip15_1_6607)">
<g id="Light_14">
<rect id="Rectangle_209" x="450" y="200" width="50" height="50" fill="#FEFEFE" stroke="#EBEBEB"/>
<rect id="Rectangle_210" x="400" y="250" width="50" height="50" fill="#FEFEFE" stroke="#EBEBEB"/>
<rect id="Rectangle_211" x="550" y="200" width="50" height="50" fill="#FEFEFE" stroke="#EBEBEB"/>
<rect id="Rectangle_212" x="500" y="250" width="50" height="50" fill="#FEFEFE" stroke="#EBEBEB"/>
<rect id="Rectangle_213" x="450" y="300" width="50" height="50" fill="#FEFEFE" stroke="#EBEBEB"/>
<rect id="Rectangle_214" x="400" y="350" width="50" height="50" fill="#FEFEFE" stroke="#EBEBEB"/>
<rect id="Rectangle_215" x="550" y="300" width="50" height="50" fill="#FEFEFE" stroke="#EBEBEB"/>
<rect id="Rectangle_216" x="500" y="350" width="50" height="50" fill="#FEFEFE" stroke="#EBEBEB"/>
</g>
<g id="Dark_14">
<rect id="Rectangle_217" x="400" y="200" width="50" height="50" fill="#F8F8F8" stroke="#EBEBEB"/>
<rect id="Rectangle_218" x="450" y="250" width="50" height="50" fill="#F8F8F8" stroke="#EBEBEB"/>
<rect id="Rectangle_219" x="500" y="200" width="50" height="50" fill="#F8F8F8" stroke="#EBEBEB"/>
<rect id="Rectangle_220" x="550" y="250" width="50" height="50" fill="#F8F8F8" stroke="#EBEBEB"/>
<rect id="Rectangle_221" x="400" y="300" width="50" height="50" fill="#F8F8F8" stroke="#EBEBEB"/>
<rect id="Rectangle_222" x="450" y="350" width="50" height="50" fill="#F8F8F8" stroke="#EBEBEB"/>
<rect id="Rectangle_223" x="500" y="300" width="50" height="50" fill="#F8F8F8" stroke="#EBEBEB"/>
<rect id="Rectangle_224" x="550" y="350" width="50" height="50" fill="#F8F8F8" stroke="#EBEBEB"/>
</g>
</g>
<g id="Background/Pattern_15" clip-path="url(#clip16_1_6607)">
<g id="Light_15">
<rect id="Rectangle_225" x="650" y="200" width="50" height="50" fill="#FEFEFE" stroke="#EBEBEB"/>
<rect id="Rectangle_226" x="600" y="250" width="50" height="50" fill="#FEFEFE" stroke="#EBEBEB"/>
<rect id="Rectangle_227" x="750" y="200" width="50" height="50" fill="#FEFEFE" stroke="#EBEBEB"/>
<rect id="Rectangle_228" x="700" y="250" width="50" height="50" fill="#FEFEFE" stroke="#EBEBEB"/>
<rect id="Rectangle_229" x="650" y="300" width="50" height="50" fill="#FEFEFE" stroke="#EBEBEB"/>
<rect id="Rectangle_230" x="600" y="350" width="50" height="50" fill="#FEFEFE" stroke="#EBEBEB"/>
<rect id="Rectangle_231" x="750" y="300" width="50" height="50" fill="#FEFEFE" stroke="#EBEBEB"/>
<rect id="Rectangle_232" x="700" y="350" width="50" height="50" fill="#FEFEFE" stroke="#EBEBEB"/>
</g>
<g id="Dark_15">
<rect id="Rectangle_233" x="600" y="200" width="50" height="50" fill="#F8F8F8" stroke="#EBEBEB"/>
<rect id="Rectangle_234" x="650" y="250" width="50" height="50" fill="#F8F8F8" stroke="#EBEBEB"/>
<rect id="Rectangle_235" x="700" y="200" width="50" height="50" fill="#F8F8F8" stroke="#EBEBEB"/>
<rect id="Rectangle_236" x="750" y="250" width="50" height="50" fill="#F8F8F8" stroke="#EBEBEB"/>
<rect id="Rectangle_237" x="600" y="300" width="50" height="50" fill="#F8F8F8" stroke="#EBEBEB"/>
<rect id="Rectangle_238" x="650" y="350" width="50" height="50" fill="#F8F8F8" stroke="#EBEBEB"/>
<rect id="Rectangle_239" x="700" y="300" width="50" height="50" fill="#F8F8F8" stroke="#EBEBEB"/>
<rect id="Rectangle_240" x="750" y="350" width="50" height="50" fill="#F8F8F8" stroke="#EBEBEB"/>
</g>
</g>
<g id="Background/Pattern_16" clip-path="url(#clip17_1_6607)">
<g id="Light_16">
<rect id="Rectangle_241" x="50" width="50" height="50" fill="#FEFEFE" stroke="#EBEBEB"/>
<rect id="Rectangle_242" y="50" width="50" height="50" fill="#FEFEFE" stroke="#EBEBEB"/>
<rect id="Rectangle_243" x="150" width="50" height="50" fill="#FEFEFE" stroke="#EBEBEB"/>
<rect id="Rectangle_244" x="100" y="50" width="50" height="50" fill="#FEFEFE" stroke="#EBEBEB"/>
<rect id="Rectangle_245" x="50" y="100" width="50" height="50" fill="#FEFEFE" stroke="#EBEBEB"/>
<rect id="Rectangle_246" y="150" width="50" height="50" fill="#FEFEFE" stroke="#EBEBEB"/>
<rect id="Rectangle_247" x="150" y="100" width="50" height="50" fill="#FEFEFE" stroke="#EBEBEB"/>
<rect id="Rectangle_248" x="100" y="150" width="50" height="50" fill="#FEFEFE" stroke="#EBEBEB"/>
</g>
<g id="Dark_16">
<rect id="Rectangle_249" width="50" height="50" fill="#F8F8F8" stroke="#EBEBEB"/>
<rect id="Rectangle_250" x="50" y="50" width="50" height="50" fill="#F8F8F8" stroke="#EBEBEB"/>
<rect id="Rectangle_251" x="100" width="50" height="50" fill="#F8F8F8" stroke="#EBEBEB"/>
<rect id="Rectangle_252" x="150" y="50" width="50" height="50" fill="#F8F8F8" stroke="#EBEBEB"/>
<rect id="Rectangle_253" y="100" width="50" height="50" fill="#F8F8F8" stroke="#EBEBEB"/>
<rect id="Rectangle_254" x="50" y="150" width="50" height="50" fill="#F8F8F8" stroke="#EBEBEB"/>
<rect id="Rectangle_255" x="100" y="100" width="50" height="50" fill="#F8F8F8" stroke="#EBEBEB"/>
<rect id="Rectangle_256" x="150" y="150" width="50" height="50" fill="#F8F8F8" stroke="#EBEBEB"/>
</g>
</g>
</g>
<rect id="Rectangle_257" x="440" y="442" width="20" height="300" rx="10" transform="rotate(-90 440 442)" fill="#212121" fill-opacity="0.1"/>
<rect id="Rectangle_258" x="515" y="442" width="20" height="150" rx="10" transform="rotate(-90 515 442)" fill="#212121"/>
<g id="Props/Ball/B">
<circle id="Oval" cx="590" cy="236" r="10" fill="#212121"/>
</g>
<g id="Props/Border/End">
<g id="Rectangle_259">
<mask id="path-260-inside-1_1_6607" fill="white">
<path d="M720 376H740V386C740 391.523 735.523 396 730 396C724.477 396 720 391.523 720 386V376Z"/>
</mask>
<path d="M720 376H740V386C740 391.523 735.523 396 730 396C724.477 396 720 391.523 720 386V376Z" fill="#50E3C2"/>
<path d="M720 376H740H720ZM741 386C741 392.075 736.075 397 730 397C723.925 397 719 392.075 719 386H721C721 390.971 725.029 395 730 395C734.971 395 739 390.971 739 386H741ZM730 397C723.925 397 719 392.075 719 386V376H721V386C721 390.971 725.029 395 730 395V397ZM741 376V386C741 392.075 736.075 397 730 397V395C734.971 395 739 390.971 739 386V376H741Z" fill="#3CCFAE" mask="url(#path-260-inside-1_1_6607)"/>
</g>
</g>
<g id="Props/Border/Side">
<g id="Rectangle_260">
<mask id="path-262-inside-2_1_6607" fill="white">
<path d="M720 76H740V376H720V76Z"/>
</mask>
<path d="M720 76H740V376H720V76Z" fill="#50E3C2"/>
<path d="M739 76V376H741V76H739ZM721 376V76H719V376H721Z" fill="#3CCFAE" mask="url(#path-262-inside-2_1_6607)"/>
</g>
</g>
<g id="Props/Border/End_2">
<g id="Rectangle_261">
<mask id="path-264-inside-3_1_6607" fill="white">
<path d="M61 376H81V386C81 391.523 76.5228 396 71 396C65.4772 396 61 391.523 61 386V376Z"/>
</mask>
<path d="M61 376H81V386C81 391.523 76.5228 396 71 396C65.4772 396 61 391.523 61 386V376Z" fill="#50E3C2"/>
<path d="M61 376H81H61ZM82 386C82 392.075 77.0751 397 71 397C64.9249 397 60 392.075 60 386H62C62 390.971 66.0294 395 71 395C75.9706 395 80 390.971 80 386H82ZM71 397C64.9249 397 60 392.075 60 386V376H62V386C62 390.971 66.0294 395 71 395V397ZM82 376V386C82 392.075 77.0751 397 71 397V395C75.9706 395 80 390.971 80 386V376H82Z" fill="#3CCFAE" mask="url(#path-264-inside-3_1_6607)"/>
</g>
</g>
<g id="Props/Border/Side_2">
<g id="Rectangle_262">
<mask id="path-266-inside-4_1_6607" fill="white">
<path d="M61 76H81V376H61V76Z"/>
</mask>
<path d="M61 76H81V376H61V76Z" fill="#50E3C2"/>
<path d="M80 76V376H82V76H80ZM62 376V76H60V376H62Z" fill="#3CCFAE" mask="url(#path-266-inside-4_1_6607)"/>
</g>
</g>
<g id="Props/Paddle">
<path id="Rectangle_263" d="M397 145C397 139.477 401.477 135 407 135C412.523 135 417 139.477 417 145V325C417 330.523 412.523 335 407 335C401.477 335 397 330.523 397 325V145Z" fill="#50E3C2" stroke="#3CCFAE"/>
</g>
<g id="Props/Border/Side_3">
<g id="Rectangle_264">
<mask id="path-269-inside-5_1_6607" fill="white">
<path d="M720 56L720 76L81 76L81 56L720 56Z"/>
</mask>
<path d="M720 56L720 76L81 76L81 56L720 56Z" fill="#50E3C2"/>
<path d="M720 75L81 75L81 77L720 77L720 75ZM81 57L720 57L720 55L81 55L81 57Z" fill="#3CCFAE" mask="url(#path-269-inside-5_1_6607)"/>
</g>
</g>
<g id="Props/Border/Corner">
<g id="Rectangle_265">
<mask id="path-271-inside-6_1_6607" fill="white">
<path d="M61 76V66C61 60.4772 65.4772 56 71 56H81V76H61Z"/>
</mask>
<path d="M61 76V66C61 60.4772 65.4772 56 71 56H81V76H61Z" fill="#50E3C2"/>
<path d="M60 76V66C60 59.9249 64.9249 55 71 55V57C66.0294 57 62 61.0294 62 66V76H60ZM81 56V76V56ZM81 76H61H81ZM60 66C60 59.9249 64.9249 55 71 55H81V57H71C66.0294 57 62 61.0294 62 66H60Z" fill="#3CCFAE" mask="url(#path-271-inside-6_1_6607)"/>
</g>
<rect id="Rectangle_266" x="80" y="75" width="1" height="1" fill="#3CCFAE"/>
</g>
<g id="Props/Border/Corner_2">
<g id="Rectangle_267">
<mask id="path-274-inside-7_1_6607" fill="white">
<path d="M720 56L730 56C735.523 56 740 60.4772 740 66L740 76L720 76L720 56Z"/>
</mask>
<path d="M720 56L730 56C735.523 56 740 60.4772 740 66L740 76L720 76L720 56Z" fill="#50E3C2"/>
<path d="M720 55L730 55C736.075 55 741 59.9249 741 66L739 66C739 61.0294 734.971 57 730 57L720 57L720 55ZM740 76L720 76L740 76ZM720 76L720 56L720 76ZM730 55C736.075 55 741 59.9249 741 66L741 76L739 76L739 66C739 61.0294 734.971 57 730 57L730 55Z" fill="#3CCFAE" mask="url(#path-274-inside-7_1_6607)"/>
</g>
<rect id="Rectangle_268" x="721" y="75" width="1" height="1" transform="rotate(90 721 75)" fill="#3CCFAE"/>
</g>
<rect id="Rectangle_269" x="61" y="443" width="20" height="300" rx="10" transform="rotate(-90 61 443)" fill="#212121" fill-opacity="0.1"/>
<rect id="Rectangle_270" x="128" y="442" width="20" height="150" rx="10" transform="rotate(-90 128 442)" fill="#212121"/>
<g id="Props/Ball/B_2">
<circle id="Oval_2" cx="158" cy="286" r="10" fill="#212121"/>
</g>
<g id="Props/Ball/A">
<g id="Oval_3" filter="url(#filter0_d_1_6607)">
<circle cx="257" cy="173" r="10" fill="#50E3C2"/>
<circle cx="257" cy="173" r="9.5" stroke="#3CCFAE"/>
</g>
</g>
<g id="Help/ControlsArrows">
<g id="UI/Help/ControlArrows/KeyUp" opacity="0.2" clip-path="url(#clip18_1_6607)">
<rect id="Rectangle_271" x="228.763" y="513" width="40.7632" height="40.7632" rx="9" transform="rotate(-180 228.763 513)" stroke="#212121" stroke-width="2"/>
<path id="Triangle" d="M208.725 487.79L212.952 496.243C213.174 496.686 213.084 496.889 213.057 496.933C213.029 496.977 212.888 497.148 212.392 497.148L204.496 497.148C203.999 497.148 203.858 496.976 203.831 496.933C203.804 496.889 203.714 496.686 203.935 496.243L208.162 487.79C208.277 487.56 208.382 487.443 208.444 487.392C208.506 487.443 208.611 487.56 208.725 487.79ZM208.487 487.362C208.487 487.362 208.486 487.362 208.486 487.362L208.487 487.362ZM208.402 487.362C208.401 487.362 208.4 487.362 208.4 487.362L208.402 487.362Z" stroke="#212121" stroke-width="2"/>
</g>
<g id="UI/Help/ControlArrows/KeyRight" clip-path="url(#clip19_1_6607)">
<rect id="Rectangle_272" x="285.763" y="529" width="40.7632" height="40.7632" rx="9" transform="rotate(90 285.763 529)" stroke="#212121" stroke-width="2"/>
<path id="Triangle_2" d="M269.49 550.383L261.037 554.61C260.593 554.832 260.39 554.742 260.347 554.715C260.303 554.687 260.132 554.546 260.132 554.049V546.154C260.132 545.657 260.303 545.516 260.347 545.489C260.391 545.461 260.594 545.372 261.037 545.593L269.49 549.82C269.719 549.934 269.836 550.04 269.888 550.101C269.836 550.163 269.719 550.269 269.49 550.383ZM269.918 550.145C269.918 550.145 269.917 550.144 269.917 550.143L269.918 550.145ZM269.917 550.06C269.917 550.059 269.918 550.058 269.918 550.058L269.917 550.06Z" stroke="#212121" stroke-width="2"/>
</g>
<g id="UI/Help/ControlArrows/KeyDown" opacity="0.2" clip-path="url(#clip20_1_6607)">
<rect id="Rectangle_273" x="228.763" y="569.763" width="40.7632" height="40.7632" rx="9" transform="rotate(-180 228.763 569.763)" stroke="#212121" stroke-width="2"/>
<path id="Triangle_3" d="M208.162 553.49L203.935 545.037C203.713 544.593 203.804 544.39 203.831 544.347C203.858 544.303 204 544.132 204.496 544.132H212.392C212.888 544.132 213.029 544.303 213.057 544.347C213.084 544.391 213.174 544.594 212.952 545.037L208.725 553.49C208.611 553.719 208.506 553.836 208.444 553.888C208.382 553.836 208.277 553.719 208.162 553.49ZM208.401 553.918C208.401 553.918 208.401 553.917 208.402 553.917L208.401 553.918ZM208.486 553.917C208.486 553.917 208.487 553.918 208.487 553.918L208.486 553.917Z" stroke="#212121" stroke-width="2"/>
</g>
<g id="UI/Help/ControlArrows/KeyLeft" clip-path="url(#clip21_1_6607)">
<rect id="Rectangle_274" x="131" y="569.763" width="40.7632" height="40.7632" rx="9" transform="rotate(-90 131 569.763)" stroke="#212121" stroke-width="2"/>
<path id="Triangle_4" d="M147.868 549.82L156.322 545.593C156.765 545.371 156.968 545.462 157.012 545.489C157.056 545.516 157.227 545.658 157.227 546.154V554.049C157.227 554.546 157.055 554.687 157.012 554.715C156.968 554.742 156.765 554.832 156.322 554.61L147.868 550.383C147.639 550.269 147.522 550.164 147.471 550.102C147.522 550.04 147.639 549.935 147.868 549.82ZM147.441 550.058C147.441 550.058 147.441 550.059 147.441 550.06L147.441 550.058ZM147.441 550.143C147.441 550.144 147.441 550.145 147.441 550.145L147.441 550.143Z" stroke="#212121" stroke-width="2"/>
</g>
</g>
<g id="Help/ControlsWASD">
<g id="UI/Help/ControlLetters/A" clip-path="url(#clip22_1_6607)">
<rect id="Rectangle_275" x="512" y="570.485" width="40.9707" height="40.9707" rx="9" transform="rotate(-90 512 570.485)" stroke="#212121" stroke-width="2"/>
<text id="A" fill="#212121" xml:space="preserve" style="white-space: pre" font-family="Helvetica" font-size="24" letter-spacing="0px"><tspan x="525.222" y="559.279">A</tspan></text>
</g>
<g id="UI/Help/ControlLetters/S" opacity="0.2" clip-path="url(#clip23_1_6607)">
<text id="S" fill="#212121" xml:space="preserve" style="white-space: pre" font-family="Helvetica" font-size="24" font-weight="300" letter-spacing="0px"><tspan x="582.736" y="559.28">S</tspan></text>
<rect id="Rectangle_276" x="610.485" y="570.485" width="40.9707" height="40.9707" rx="9" transform="rotate(-180 610.485 570.485)" stroke="#212121" stroke-width="2"/>
</g>
<g id="UI/Help/ControlLetters/W" opacity="0.2" clip-path="url(#clip24_1_6607)">
<text id="W" fill="#212121" xml:space="preserve" style="white-space: pre" font-family="Helvetica" font-size="24" font-weight="300" letter-spacing="0px"><tspan x="579" y="502.28">W</tspan></text>
<rect id="Rectangle_277" x="569.515" y="472" width="40.9707" height="40.9707" rx="9" stroke="#212121" stroke-width="2"/>
</g>
<g id="UI/Help/ControlLetters/D">
<text id="D" fill="#212121" xml:space="preserve" style="white-space: pre" font-family="Helvetica" font-size="24" letter-spacing="0px"><tspan x="639.921" y="559.279">D</tspan></text>
<rect id="Rectangle_278" x="668" y="529.515" width="40.9707" height="40.9707" rx="9" transform="rotate(90 668 529.515)" stroke="#212121" stroke-width="2"/>
</g>
</g>
<g id="Group" clip-path="url(#clip25_1_6607)">
<rect id="Rectangle_279" x="378" y="571.971" width="42.9707" height="42.9707" rx="10" transform="rotate(-90 378 571.971)" fill="#212121" fill-opacity="0.8"/>
<text id="A_2" fill="white" xml:space="preserve" style="white-space: pre" font-family="Helvetica" font-size="24" letter-spacing="0px"><tspan x="392" y="559.279">X</tspan></text>
</g>
</g>
<defs>
<filter id="filter0_d_1_6607" x="243" y="161" width="28" height="28" filterUnits="userSpaceOnUse" color-interpolation-filters="sRGB">
<feFlood flood-opacity="0" result="BackgroundImageFix"/>
<feColorMatrix in="SourceAlpha" type="matrix" values="0 0 0 0 0 0 0 0 0 0 0 0 0 0 0 0 0 0 127 0" result="hardAlpha"/>
<feOffset dy="2"/>
<feGaussianBlur stdDeviation="2"/>
<feColorMatrix type="matrix" values="0 0 0 0 0 0 0 0 0 0 0 0 0 0 0 0 0 0 0.1 0"/>
<feBlend mode="normal" in2="BackgroundImageFix" result="effect1_dropShadow_1_6607"/>
<feBlend mode="normal" in="SourceGraphic" in2="effect1_dropShadow_1_6607" result="shape"/>
</filter>
<clipPath id="clip0_1_6607">
<rect width="800" height="600" fill="white"/>
</clipPath>
<clipPath id="clip1_1_6607">
<rect width="800" height="600" fill="white"/>
</clipPath>
<clipPath id="clip2_1_6607">
<rect width="200" height="200" fill="white" transform="translate(0 400)"/>
</clipPath>
<clipPath id="clip3_1_6607">
<rect width="200" height="200" fill="white" transform="translate(200 400)"/>
</clipPath>
<clipPath id="clip4_1_6607">
<rect width="200" height="200" fill="white" transform="translate(400 400)"/>
</clipPath>
<clipPath id="clip5_1_6607">
<rect width="200" height="200" fill="white" transform="translate(600 400)"/>
</clipPath>
<clipPath id="clip6_1_6607">
<rect width="200" height="200" fill="white" transform="translate(200)"/>
</clipPath>
<clipPath id="clip7_1_6607">
<rect width="200" height="200" fill="white" transform="translate(400)"/>
</clipPath>
<clipPath id="clip8_1_6607">
<rect width="200" height="200" fill="white" transform="translate(600)"/>
</clipPath>
<clipPath id="clip9_1_6607">
<rect width="200" height="200" fill="white" transform="translate(0 200)"/>
</clipPath>
<clipPath id="clip10_1_6607">
<rect width="200" height="200" fill="white" transform="translate(200 200)"/>
</clipPath>
<clipPath id="clip11_1_6607">
<rect width="200" height="200" fill="white" transform="translate(400 200)"/>
</clipPath>
<clipPath id="clip12_1_6607">
<rect width="200" height="200" fill="white" transform="translate(600 200)"/>
</clipPath>
<clipPath id="clip13_1_6607">
<rect width="200" height="200" fill="white" transform="translate(0 200)"/>
</clipPath>
<clipPath id="clip14_1_6607">
<rect width="200" height="200" fill="white" transform="translate(200 200)"/>
</clipPath>
<clipPath id="clip15_1_6607">
<rect width="200" height="200" fill="white" transform="translate(400 200)"/>
</clipPath>
<clipPath id="clip16_1_6607">
<rect width="200" height="200" fill="white" transform="translate(600 200)"/>
</clipPath>
<clipPath id="clip17_1_6607">
<rect width="200" height="200" fill="white"/>
</clipPath>
<clipPath id="clip18_1_6607">
<rect width="43" height="43" fill="white" transform="translate(187 471)"/>
</clipPath>
<clipPath id="clip19_1_6607">
<rect width="43" height="43" fill="white" transform="translate(244 528)"/>
</clipPath>
<clipPath id="clip20_1_6607">
<rect width="43" height="43" fill="white" transform="translate(187 528)"/>
</clipPath>
<clipPath id="clip21_1_6607">
<rect width="43" height="43" fill="white" transform="translate(130 528)"/>
</clipPath>
<clipPath id="clip22_1_6607">
<rect width="43" height="44" fill="white" transform="translate(511 528)"/>
</clipPath>
<clipPath id="clip23_1_6607">
<rect width="44" height="44" fill="white" transform="translate(568 528)"/>
</clipPath>
<clipPath id="clip24_1_6607">
<rect width="44" height="43" fill="white" transform="translate(568 471)"/>
</clipPath>
<clipPath id="clip25_1_6607">
<rect width="43" height="43" fill="white" transform="translate(378 529)"/>
</clipPath>
</defs>
</svg>
